<?xml version="1.0" standalone="no"?>
<!DOCTYPE svg PUBLIC "-//W3C//DTD SVG 1.1//EN" "http://www.w3.org/Graphics/SVG/1.1/DTD/svg11.dtd" >
<svg xmlns="http://www.w3.org/2000/svg" xmlns:xlink="http://www.w3.org/1999/xlink" version="1.1">
<metadata>
Created by FontForge 20161116 at Wed Mar  9 13:05:01 2016
 By Jimmy Wärting
Copyright (c) 2015 by DSType Foundry. All rights reserved.
</metadata>
<defs>
<font id="ExpoSansStd-Bold" horiz-adv-x="1255" >
  <font-face 
    font-family="Expo Sans Std Bold"
    font-weight="700"
    font-stretch="normal"
    units-per-em="2048"
    panose-1="0 0 8 0 0 0 0 0 0 0"
    ascent="1536"
    descent="-512"
    x-height="1024"
    cap-height="1411"
    bbox="-162 -485 2327 1929"
    underline-thickness="102"
    underline-position="-204"
    unicode-range="U+0020-FB02"
  />
<missing-glyph horiz-adv-x="748" 
d="M68 0v1365h544v-1365h-544zM136 68h408v1229h-408v-1229z" />
    <glyph glyph-name="uniFB01" unicode="fi" horiz-adv-x="1423" 
d="M39 774v250h158v96q0 175 101.5 275t309.5 100q159 0 262 -41l-55 -233q-70 24 -147 24q-133 0 -133 -135v-86h276v-250h-276v-774h-338v774h-158zM905 1366l230 219l223 -219l-223 -219zM963 0v1024h337v-1024h-337z" />
    <glyph glyph-name="uniFB02" unicode="fl" horiz-adv-x="1423" 
d="M39 774v250h158v96q0 175 101.5 275t309.5 100q159 0 262 -41l-55 -233q-70 24 -147 24q-133 0 -133 -135v-86h276v-250h-276v-774h-338v774h-158zM963 0v1458l337 37v-1495h-337z" />
    <glyph glyph-name=".notdef" horiz-adv-x="748" 
d="M68 0v1365h544v-1365h-544zM136 68h408v1229h-408v-1229z" />
    <glyph glyph-name="glyph1" horiz-adv-x="0" 
 />
    <glyph glyph-name="glyph2" horiz-adv-x="682" 
 />
    <glyph glyph-name="space" unicode=" " horiz-adv-x="456" 
 />
    <glyph glyph-name="exclam" unicode="!" horiz-adv-x="532" 
d="M86 1393h358l-53 -973h-252zM127 0v276h276v-276h-276z" />
    <glyph glyph-name="quotedbl" unicode="&#x22;" horiz-adv-x="856" 
d="M100 1393h271l-54 -541h-163zM485 1393h269l-54 -541h-161z" />
    <glyph glyph-name="numbersign" unicode="#" horiz-adv-x="1634" 
d="M82 0l137 291h-131v252h244l102 219h-229v252h342l176 379h270l-174 -379h287l176 379h270l-176 -379h170v-252h-282l-103 -219h303v-252h-415l-138 -291h-270l137 291h-289l-137 -291h-270zM602 543h289l102 219h-288z" />
    <glyph glyph-name="dollar" unicode="$" horiz-adv-x="1253" 
d="M86 80v313q131 -82 328 -114l75 286q-67 23 -115.5 44.5t-105.5 59t-93 80.5t-60.5 107.5t-24.5 142.5q0 107 42 188.5t115.5 129.5t164.5 72t196 24q18 0 52 -1t49 -1l61 238h211l-70 -269q102 -22 226 -67l-39 -312q-138 71 -260 101l-68 -260q67 -23 115.5 -44.5
t105 -58t92.5 -78.5t60 -104.5t24 -138.5q0 -95 -31 -170.5t-83 -125t-124 -82t-149.5 -46.5t-163.5 -14q-46 0 -69 2l-62 -238h-209l66 258q-130 22 -256 78zM455 1018q0 -37 31 -63t92 -50l57 221q-87 -2 -133.5 -24.5t-46.5 -83.5zM621 268q184 11 184 117q0 37 -31.5 64
t-91.5 51z" />
    <glyph glyph-name="percent" unicode="%" horiz-adv-x="1716" 
d="M68 1061q0 161 85.5 256.5t252.5 95.5t252 -95.5t85 -256.5q0 -162 -85 -258t-252 -96t-252.5 96t-85.5 258zM272 0l897 1393h263l-897 -1393h-263zM305 1061q0 -70 23.5 -103.5t77.5 -33.5t76 33.5t22 103.5q0 69 -22 102t-76 33t-77.5 -33.5t-23.5 -101.5zM973 336
q0 161 85.5 257.5t252.5 96.5t251.5 -96.5t84.5 -257.5t-84.5 -256.5t-251.5 -95.5t-252.5 95.5t-85.5 256.5zM1210 336q0 -68 23.5 -101.5t77.5 -33.5t76 33t22 102q0 70 -22 103.5t-76 33.5t-77.5 -33.5t-23.5 -103.5z" />
    <glyph glyph-name="ampersand" unicode="&#x26;" horiz-adv-x="1529" 
d="M72 352q0 68 23.5 126t65 100t89.5 72t106 52q-161 147 -161 334q0 97 42.5 172t113 118.5t154 65t173.5 21.5q113 0 203 -29t144.5 -78t83 -109.5t28.5 -127.5q0 -118 -79.5 -215t-226.5 -149l259 -189q82 109 143 227l231 -112q-81 -161 -161 -273l202 -149l-164 -225
l-233 168q-213 -172 -516 -172q-239 0 -379.5 97t-140.5 275zM418 391q0 -76 59 -118t166 -42q124 0 242 80l-359 258q-108 -67 -108 -178zM532 1026q0 -48 27.5 -89.5t81.5 -88.5q174 66 174 182q0 56 -39.5 94.5t-105.5 38.5q-59 0 -98.5 -36.5t-39.5 -100.5z" />
    <glyph glyph-name="quotesingle" unicode="'" horiz-adv-x="473" 
d="M100 1393h271l-54 -541h-163z" />
    <glyph glyph-name="parenleft" unicode="(" horiz-adv-x="679" 
d="M72 696q0 169 38 333.5t98.5 292t125 222t129.5 156.5h209q-55 -74 -110 -181t-103.5 -237.5t-78.5 -285.5t-30 -300q0 -191 52.5 -396.5t123 -355t146.5 -251.5h-209q-65 62 -129.5 156.5t-125 221.5t-98.5 291.5t-38 333.5z" />
    <glyph glyph-name="parenright" unicode=")" horiz-adv-x="679" 
d="M6 -307q56 74 111.5 180.5t104 237.5t78.5 285.5t30 299.5t-30 300t-78.5 285.5t-104 237.5t-111.5 181h211q65 -62 129.5 -156.5t125 -222t98.5 -292t38 -333.5t-38 -333.5t-98.5 -291.5t-125 -221.5t-129.5 -156.5h-211z" />
    <glyph glyph-name="asterisk" unicode="*" horiz-adv-x="768" 
d="M80 997l153 88l-153 89l76 131l153 -88v176h150v-176l153 88l76 -131l-153 -89l153 -88l-76 -131l-153 90v-178h-150v178l-153 -90z" />
    <glyph glyph-name="plus" unicode="+" horiz-adv-x="1161" 
d="M74 526v252h381v381h252v-381h380v-252h-380v-381h-252v381h-381z" />
    <glyph glyph-name="comma" unicode="," horiz-adv-x="485" 
d="M18 -256q37 97 65 250.5t28 281.5h270q-21 -310 -180 -542z" />
    <glyph glyph-name="hyphen" unicode="-" horiz-adv-x="946" 
d="M109 475v252h729v-252h-729z" />
    <glyph glyph-name="period" unicode="." horiz-adv-x="487" 
d="M106 0v276h275v-276h-275z" />
    <glyph glyph-name="slash" unicode="/" horiz-adv-x="1036" 
d="M0 0l817 1393h219l-817 -1393h-219z" />
    <glyph glyph-name="zero" unicode="0" horiz-adv-x="1449" 
d="M88 696q0 118 24 224t74.5 196.5t124.5 156t180 103t234 37.5t234 -37.5t180 -103t124.5 -156t74.5 -196.5t24 -224q0 -150 -38.5 -278t-115 -227t-200 -155t-283.5 -56t-283.5 56t-200 155t-115 227t-38.5 278zM453 696q0 -105 13.5 -184t44.5 -140t84.5 -92.5
t129.5 -31.5t129.5 31.5t84.5 92.5t44.5 140t13.5 184t-13.5 184t-44.5 140t-84.5 93t-129.5 32t-129.5 -32t-84.5 -93t-44.5 -140t-13.5 -184z" />
    <glyph glyph-name="one" unicode="1" horiz-adv-x="1054" 
d="M51 1217l379 186h303v-1118h256l39 -285h-942v285h293v780l-236 -115z" />
    <glyph glyph-name="two" unicode="2" 
d="M86 0v166q0 105 38.5 191t100 143.5t135.5 106t148 87.5t135.5 78t100 88.5t38.5 108.5q0 176 -225 176q-161 0 -397 -141l-41 276q127 67 241 100t240 33q114 0 210.5 -25t173 -74.5t120 -133.5t43.5 -193q0 -88 -36.5 -166t-95 -134t-129 -105t-141 -87t-129 -72
t-95 -68.5t-36.5 -67.5h645l39 -287h-1083z" />
    <glyph glyph-name="three" unicode="3" horiz-adv-x="1214" 
d="M35 88l88 248q129 -47 219.5 -67.5t183.5 -20.5q256 0 256 170q0 89 -70 128.5t-220 39.5h-113v250h113q147 1 210.5 39.5t63.5 123.5q0 154 -217 154q-88 0 -161.5 -18t-213.5 -68l-88 248q248 106 516 106q229 0 361.5 -100t132.5 -287q0 -121 -64.5 -201t-177.5 -120
q283 -79 283 -330q0 -193 -146 -298t-411 -105q-332 0 -545 108z" />
    <glyph glyph-name="four" unicode="4" horiz-adv-x="1366" 
d="M66 246v268l704 879h365v-879h172v-268h-172v-246h-357v246h-712zM420 514h358v461z" />
    <glyph glyph-name="five" unicode="5" horiz-adv-x="1239" 
d="M59 88q213 -108 541 -108q265 0 417 125t152 348q0 206 -133 319t-354 113q-93 0 -215 -23l16 246h570l37 285h-902l-38 -805q206 45 374 45q281 0 281 -187q0 -92 -65.5 -145t-192.5 -53q-92 0 -181.5 20t-218.5 68z" />
    <glyph glyph-name="six" unicode="6" horiz-adv-x="1378" 
d="M88 674q0 108 23.5 211.5t76 200t129.5 168.5t192 115.5t255 43.5q130 0 233 -21.5t207 -70.5l-90 -250q-82 40 -150 57t-163 17q-169 0 -258.5 -104t-89.5 -332q66 88 171.5 137t217.5 49q205 0 325.5 -118.5t120.5 -305.5q0 -218 -146.5 -354.5t-410.5 -136.5
q-162 0 -287 53.5t-201.5 149t-115.5 219.5t-39 272zM465 514q15 -113 78 -189.5t172 -76.5q90 0 150.5 58.5t60.5 152.5q0 90 -59.5 146.5t-147.5 56.5q-76 0 -146 -42.5t-108 -105.5z" />
    <glyph glyph-name="seven" unicode="7" horiz-adv-x="1146" 
d="M47 1108l39 285h1020v-250l-567 -1143h-346l548 1108h-694z" />
    <glyph glyph-name="eight" unicode="8" horiz-adv-x="1339" 
d="M78 358q0 93 63 182t176 140q-172 114 -172 334q0 127 70.5 218.5t189 136t271.5 44.5q104 0 196.5 -25t165 -71.5t114.5 -120t42 -164.5q0 -193 -186 -297q118 -53 186 -135.5t68 -212.5t-80 -223.5t-213 -138.5t-305 -45q-120 0 -222.5 21t-185.5 64.5t-130.5 118.5
t-47.5 174zM442 399q0 -74 59 -121t169 -47q102 0 164.5 43t62.5 119q0 20 -8 38t-19.5 31t-34 26t-41.5 21.5t-52.5 19t-55.5 17t-63 17.5t-64 17q-117 -73 -117 -181zM467 1018q0 -17 3.5 -32.5t13.5 -29.5t18.5 -25t27.5 -22.5t30.5 -19t38.5 -18t40 -16t46 -15.5
t46.5 -14t50.5 -15q49 47 70.5 94t21.5 109q0 64 -53 106.5t-151 42.5q-94 0 -148.5 -39t-54.5 -106z" />
    <glyph glyph-name="nine" unicode="9" horiz-adv-x="1378" 
d="M88 922q0 218 146.5 354.5t412.5 136.5q161 0 285.5 -53.5t201.5 -148.5t115.5 -219t38.5 -271q0 -109 -23.5 -212.5t-76 -200t-129 -169t-191.5 -116t-254 -43.5q-131 0 -234 21.5t-208 70.5l92 250q82 -40 150 -57t164 -17q169 0 258.5 104t89.5 332
q-67 -88 -172.5 -137t-216.5 -49q-206 0 -327.5 118.5t-121.5 305.5zM453 934q0 -90 58.5 -145.5t145.5 -55.5q77 0 146.5 41.5t107.5 104.5q-6 53 -23.5 99t-47 84.5t-75.5 60.5t-103 22q-90 0 -149.5 -58t-59.5 -153z" />
    <glyph glyph-name="colon" unicode=":" horiz-adv-x="491" 
d="M106 154v276h275v-276h-275zM106 631v276h275v-276h-275z" />
    <glyph glyph-name="semicolon" unicode=";" horiz-adv-x="497" 
d="M18 -256q37 97 65 250.5t28 281.5h270q-21 -310 -180 -542zM106 631v276h275v-276h-275z" />
    <glyph glyph-name="less" unicode="&#x3c;" horiz-adv-x="1150" 
d="M109 473v358l931 224v-252l-657 -150l657 -151v-252z" />
    <glyph glyph-name="equal" unicode="=" horiz-adv-x="1171" 
d="M119 291v252h934v-252h-934zM119 762v252h934v-252h-934z" />
    <glyph glyph-name="greater" unicode="&#x3e;" horiz-adv-x="1150" 
d="M109 250v252l657 151l-657 150v252l931 -224v-358z" />
    <glyph glyph-name="question" unicode="?" horiz-adv-x="1196" 
d="M66 1313q150 53 262.5 76.5t265.5 23.5q105 0 195.5 -24t163.5 -72t115 -129.5t42 -188.5q0 -87 -27 -154.5t-70 -109t-95 -73.5t-103.5 -56t-94.5 -48.5t-70 -59.5t-27 -80h-271q0 92 22 163.5t57 115t77 77t84 57t77 45.5t57 53t22 70q0 72 -54 99.5t-153 27.5
q-189 0 -439 -125zM350 0v276h275v-276h-275z" />
    <glyph glyph-name="at" unicode="@" horiz-adv-x="2029" 
d="M106 532q0 164 40 311.5t121 270.5t196.5 212.5t274 139.5t345.5 50q163 0 297.5 -34t226.5 -92.5t155 -138t91.5 -169t28.5 -187.5v-895h-303l-35 147q-105 -167 -305 -167q-204 0 -324 144t-120 388q0 246 120 389t324 143q200 0 305 -167q0 184 -123 286.5t-338 102.5
q-314 0 -493.5 -188t-179.5 -546q0 -343 188 -545t494 -202v-256q-185 0 -344.5 53.5t-276 148t-199.5 221t-124.5 274.5t-41.5 306zM1141 512q0 -128 55 -204.5t162 -76.5q103 0 186 76v410q-86 78 -186 78q-107 0 -162 -77.5t-55 -205.5z" />
    <glyph glyph-name="A" unicode="A" horiz-adv-x="1470" 
d="M-6 0l538 1384l422 37l523 -1403l-357 -36l-96 276h-571l-95 -258h-364zM555 545h369l-183 516z" />
    <glyph glyph-name="B" unicode="B" horiz-adv-x="1415" 
d="M145 0v1393h617q541 0 541 -383q0 -95 -47.5 -173t-151.5 -112q63 -14 110.5 -47t74.5 -77.5t40.5 -94t13.5 -103.5q0 -211 -132.5 -307t-405.5 -96h-660zM500 287h303q176 0 176 143q0 68 -41 105t-135 38h-303v-286zM500 842h258q96 0 138 32.5t42 98.5q0 67 -42 100
t-138 33h-258v-264z" />
    <glyph glyph-name="C" unicode="C" horiz-adv-x="1368" 
d="M72 696q0 327 204 522t553 195q146 0 253.5 -25.5t209.5 -74.5l-55 -312q-102 66 -193 95.5t-198 29.5q-191 0 -300.5 -110t-109.5 -320q0 -209 106.5 -319.5t284.5 -110.5q114 0 234 32t215 95v-313q-102 -49 -209.5 -74.5t-253.5 -25.5q-338 0 -539.5 195t-201.5 521z
" />
    <glyph glyph-name="D" unicode="D" horiz-adv-x="1550" 
d="M145 0v1393h539q177 0 322 -54t240 -148.5t146.5 -221.5t51.5 -273q0 -148 -51.5 -275t-146.5 -220.5t-240 -147t-322 -53.5h-539zM500 287h184q187 0 291 109t104 300t-104 300.5t-291 109.5h-184v-819z" />
    <glyph glyph-name="E" unicode="E" 
d="M145 0v1393h1002v-287h-647v-254h569l37 -287h-606v-278h667v-287h-1022z" />
    <glyph glyph-name="F" unicode="F" horiz-adv-x="1228" 
d="M145 0v1393h1016v-287h-661v-330h581l39 -287h-620v-489h-355z" />
    <glyph glyph-name="G" unicode="G" horiz-adv-x="1398" 
d="M72 696q0 328 193.5 522.5t527.5 194.5q148 0 254.5 -25.5t207.5 -74.5l-36 -312q-103 66 -195 95.5t-199 29.5q-177 0 -283 -110.5t-106 -319.5t106 -319.5t283 -110.5q69 0 127 17v379l338 36v-624q-210 -94 -497 -94q-335 0 -528 194t-193 522z" />
    <glyph glyph-name="H" unicode="H" horiz-adv-x="1556" 
d="M145 0v1374l355 37v-559h557v522l354 37v-1411h-354v565h-557v-565h-355z" />
    <glyph glyph-name="I" unicode="I" horiz-adv-x="645" 
d="M145 0v1374l355 37v-1411h-355z" />
    <glyph glyph-name="J" unicode="J" horiz-adv-x="1021" 
d="M20 14l37 285q122 -33 258 -33q103 0 161.5 52.5t58.5 156.5v631h-342v287h696v-926q0 -487 -539 -487q-160 0 -330 34z" />
    <glyph glyph-name="K" unicode="K" horiz-adv-x="1435" 
d="M145 0v1393h355v-543h198l328 543h393l-418 -670l431 -707l-383 -36l-353 585h-196v-565h-355z" />
    <glyph glyph-name="L" unicode="L" horiz-adv-x="1216" 
d="M145 0v1374l355 37v-1124h651l39 -287h-1045z" />
    <glyph glyph-name="M" unicode="M" horiz-adv-x="1837" 
d="M145 0v1393h347l426 -650l428 650h346v-1375l-357 -36v806l-340 -505h-198l-332 505v-788h-320z" />
    <glyph glyph-name="N" unicode="N" horiz-adv-x="1572" 
d="M145 0v1393h347l616 -844v825l319 37v-1411h-346l-616 860v-860h-320z" />
    <glyph glyph-name="O" unicode="O" horiz-adv-x="1648" 
d="M72 696q0 147 49 276t141.5 228t237.5 156t325 57q179 0 324 -57t237.5 -156t141.5 -228t49 -276q0 -149 -49 -278t-141.5 -227t-237 -154.5t-324.5 -56.5t-325 56.5t-237.5 154.5t-141.5 227t-49 278zM434 696q0 -196 100 -313t289 -117q190 0 289.5 117t99.5 313
t-99.5 313t-289.5 117q-189 0 -289 -117t-100 -313z" />
    <glyph glyph-name="P" unicode="P" horiz-adv-x="1378" 
d="M145 0v1393h621q267 0 418 -129t151 -346t-151 -346.5t-418 -129.5h-266v-442h-355zM500 729h250q103 0 162 52t59 137q0 86 -59 137t-162 51h-250v-377z" />
    <glyph glyph-name="Q" unicode="Q" horiz-adv-x="1648" 
d="M72 696q0 147 49 276t141.5 228t237.5 156t325 57q179 0 324 -57t237.5 -156t141.5 -228t49 -276q0 -155 -53.5 -289.5t-155.5 -232.5l150 -186l-242 -187l-174 217q-125 -38 -277 -38q-180 0 -325 56.5t-237.5 154.5t-141.5 227t-49 278zM434 696q0 -196 100 -314
t289 -118q49 0 97 10l-136 207l174 135l187 -192q67 110 67 272q0 196 -99.5 314t-289.5 118q-189 0 -289 -118t-100 -314z" />
    <glyph glyph-name="R" unicode="R" horiz-adv-x="1413" 
d="M145 0v1393h625q537 0 537 -453q0 -144 -71 -245.5t-198 -149.5l334 -529l-364 -36l-318 507h-190v-487h-355zM500 774h241q203 0 203 166q0 85 -49.5 125.5t-153.5 40.5h-241v-332z" />
    <glyph glyph-name="S" unicode="S" horiz-adv-x="1253" 
d="M86 80v313q99 -62 232 -94.5t247 -32.5q240 0 240 119q0 32 -24.5 57.5t-66 44t-95 36t-112.5 37t-118.5 43.5t-113 59.5t-95 80t-66 110.5t-24.5 146q0 107 42 188.5t115.5 129.5t164.5 72t196 24q151 0 264 -23.5t265 -76.5l-39 -312q-247 125 -439 125q-48 0 -81 -4
t-63 -14.5t-45 -33t-15 -56.5q0 -39 39.5 -69t102 -51.5t138.5 -44.5t152 -57t138.5 -80t102 -122.5t39.5 -175.5q0 -95 -31 -170.5t-83 -125t-124 -82t-149.5 -46.5t-163.5 -14q-147 0 -273 21.5t-257 78.5z" />
    <glyph glyph-name="T" unicode="T" horiz-adv-x="1228" 
d="M25 1106v287h1179l-37 -287h-374v-1106h-357v1106h-411z" />
    <glyph glyph-name="U" unicode="U" horiz-adv-x="1531" 
d="M133 504v870l354 37v-829q0 -164 63 -240t216 -76q154 0 216 75.5t62 240.5v792l355 37v-907q0 -85 -23 -161.5t-73 -143.5t-123 -115t-179 -76t-235 -28q-160 0 -284.5 43t-199 117t-112 166t-37.5 198z" />
    <glyph glyph-name="V" unicode="V" horiz-adv-x="1488" 
d="M12 1374l355 37l374 -1079l375 1061h361l-533 -1403h-424z" />
    <glyph glyph-name="W" unicode="W" horiz-adv-x="2115" 
d="M23 1374l337 37l283 -1018l252 1000h324l272 -1000l264 1000h338l-399 -1403h-408l-237 833l-228 -833h-391z" />
    <glyph glyph-name="X" unicode="X" horiz-adv-x="1429" 
d="M4 0l492 723l-457 651l389 37l295 -434l260 416h383l-442 -668l501 -707l-389 -36l-346 487l-305 -469h-381z" />
    <glyph glyph-name="Y" unicode="Y" horiz-adv-x="1411" 
d="M12 1374l355 37l333 -661l326 643h373l-531 -977v-416h-354v418z" />
    <glyph glyph-name="Z" unicode="Z" horiz-adv-x="1267" 
d="M72 0v227l651 879h-612v287h1065v-226l-652 -880h635l37 -287h-1124z" />
    <glyph glyph-name="bracketleft" unicode="[" horiz-adv-x="700" 
d="M137 -307v2007h539v-217h-252v-1573h256v-217h-543z" />
    <glyph glyph-name="backslash" unicode="\" horiz-adv-x="1036" 
d="M0 1393h219l817 -1393h-219z" />
    <glyph glyph-name="bracketright" unicode="]" horiz-adv-x="700" 
d="M20 -90h256v1573h-251v217h538v-2007h-543v217z" />
    <glyph glyph-name="asciicircum" unicode="^" horiz-adv-x="868" 
d="M86 596l348 260l350 -260l-92 -143l-258 159l-258 -159z" />
    <glyph glyph-name="underscore" unicode="_" horiz-adv-x="1150" 
d="M109 -117h933v-252h-933v252z" />
    <glyph glyph-name="grave" unicode="`" horiz-adv-x="657" 
d="M66 1305l129 225l360 -260l-92 -144z" />
    <glyph glyph-name="a" unicode="a" horiz-adv-x="1220" 
d="M72 276q0 175 132 258.5t371 83.5q63 0 173 -12v66q0 123 -207 123q-101 0 -184 -18.5t-181 -57.5l-55 239q201 86 469 86q244 0 369.5 -103.5t125.5 -295.5v-334q0 -44 14.5 -63t53.5 -19q24 0 51 9v-238q-75 -20 -166 -20q-118 0 -184.5 41.5t-91.5 125.5
q-37 -52 -81.5 -87t-91.5 -51.5t-87.5 -22.5t-87.5 -6q-158 0 -250 84t-92 212zM418 330q0 -50 37.5 -74.5t95.5 -24.5q115 0 197 76v119q-70 12 -146 12q-184 0 -184 -108z" />
    <glyph glyph-name="b" unicode="b" horiz-adv-x="1288" 
d="M123 0v1458l338 37v-618q108 167 305 167q205 0 324.5 -143t119.5 -389q0 -245 -119.5 -388.5t-324.5 -143.5q-197 0 -305 167l-35 -147h-303zM461 307q83 -76 186 -76q107 0 162 76.5t55 204.5t-55 205.5t-162 77.5q-100 0 -186 -78v-410z" />
    <glyph glyph-name="c" unicode="c" horiz-adv-x="1095" 
d="M78 512q0 244 150 388t417 144q217 0 393 -86l-55 -239q-164 76 -299 76q-112 0 -185 -71t-73 -212t72.5 -211t185.5 -70q139 0 299 74l55 -237q-172 -88 -393 -88q-266 0 -416.5 144.5t-150.5 387.5z" />
    <glyph glyph-name="d" unicode="d" horiz-adv-x="1288" 
d="M78 512q0 246 120 389t324 143q200 0 305 -167v581l338 37v-1495h-303l-35 147q-105 -167 -305 -167q-204 0 -324 144t-120 388zM424 512q0 -128 55 -204.5t162 -76.5q103 0 186 76v410q-86 78 -186 78q-107 0 -162 -77.5t-55 -205.5z" />
    <glyph glyph-name="e" unicode="e" horiz-adv-x="1222" 
d="M78 512q0 243 151 387.5t412 144.5q107 0 192 -26.5t142.5 -72t95.5 -110.5t55 -138t17 -158q0 -73 -6 -119h-701q22 -101 91 -154t182 -53q176 0 338 76l55 -221q-73 -38 -191 -63t-239 -25q-292 0 -443 143t-151 389zM434 627h371q0 84 -41.5 134t-132.5 50
q-73 0 -125.5 -44t-71.5 -140z" />
    <glyph glyph-name="f" unicode="f" horiz-adv-x="843" 
d="M39 774v250h158v96q0 175 101.5 275t309.5 100q159 0 262 -41l-55 -233q-70 24 -147 24q-133 0 -133 -135v-86h276v-250h-276v-774h-338v774h-158z" />
    <glyph glyph-name="g" unicode="g" horiz-adv-x="1288" 
d="M78 532q0 232 121 372t323 140q200 0 305 -167l35 147h303v-973q0 -243 -157.5 -382.5t-450.5 -139.5q-121 0 -246.5 25t-199.5 61l55 240q82 -38 186.5 -57t184.5 -19q138 0 214 58t76 198v153q-105 -168 -305 -168q-202 0 -323 140t-121 372zM424 532q0 -115 56 -187.5
t161 -72.5q103 0 186 76v369q-86 78 -186 78q-105 0 -161 -73.5t-56 -189.5z" />
    <glyph glyph-name="h" unicode="h" horiz-adv-x="1230" 
d="M123 0v1458l338 37v-610q108 159 303 159q173 0 263.5 -96.5t90.5 -288.5v-659h-338v651q0 68 -39.5 106t-115.5 38q-88 0 -164 -72v-723h-338z" />
    <glyph glyph-name="i" unicode="i" horiz-adv-x="583" 
d="M66 1366l229 219l223 -219l-223 -219zM123 0v1024h338v-1024h-338z" />
    <glyph glyph-name="j" unicode="j" horiz-adv-x="583" 
d="M-109 -451l37 240q50 -10 90 -10q105 0 105 102v1143h338v-1133q0 -186 -98.5 -274t-270.5 -88q-126 0 -201 20zM66 1366l229 219l223 -219l-223 -219z" />
    <glyph glyph-name="k" unicode="k" horiz-adv-x="1212" 
d="M123 0v1458l338 37v-846h90l285 375h360l-352 -477l381 -547h-375l-281 397h-108v-397h-338z" />
    <glyph glyph-name="l" unicode="l" horiz-adv-x="583" 
d="M123 0v1458l338 37v-1495h-338z" />
    <glyph glyph-name="m" unicode="m" horiz-adv-x="1884" 
d="M123 0v1024h303l33 -143q103 163 303 163q255 0 328 -202q105 202 327 202q173 0 264 -96.5t91 -288.5v-659h-338v651q0 68 -40 106t-116 38q-90 0 -164 -74q2 -18 2 -62v-659h-338v651q0 68 -39.5 106t-115.5 38q-86 0 -162 -72v-723h-338z" />
    <glyph glyph-name="n" unicode="n" horiz-adv-x="1230" 
d="M123 0v1024h303l33 -143q106 163 305 163q173 0 263.5 -96.5t90.5 -288.5v-659h-338v651q0 68 -39.5 106t-115.5 38q-88 0 -164 -72v-723h-338z" />
    <glyph glyph-name="o" unicode="o" horiz-adv-x="1306" 
d="M78 512q0 108 36.5 203t106.5 169t181.5 117t250.5 43t250 -43t181.5 -117t107.5 -169t37 -203t-37 -203.5t-107.5 -169t-181.5 -116.5t-250 -43t-250.5 43t-181.5 116.5t-106.5 169t-36.5 203.5zM424 512q0 -56 12.5 -104.5t38.5 -89t71.5 -64t106.5 -23.5
q80 0 133.5 41.5t75 102.5t21.5 137q0 75 -21.5 136.5t-75 104t-133.5 42.5t-133.5 -42.5t-74.5 -104t-21 -136.5z" />
    <glyph glyph-name="p" unicode="p" horiz-adv-x="1288" 
d="M123 -471v1495h303l35 -147q108 167 305 167q205 0 324.5 -143t119.5 -389q0 -245 -119.5 -388.5t-324.5 -143.5q-197 0 -305 167v-581zM461 307q83 -76 186 -76q107 0 162 76.5t55 204.5t-55 205.5t-162 77.5q-100 0 -186 -78v-410z" />
    <glyph glyph-name="q" unicode="q" horiz-adv-x="1288" 
d="M78 512q0 246 120 389t324 143q200 0 305 -167l35 147h303v-1458l-338 -37v618q-105 -167 -305 -167q-204 0 -324 144t-120 388zM424 512q0 -128 55 -204.5t162 -76.5q103 0 186 76v410q-86 78 -186 78q-107 0 -162 -77.5t-55 -205.5z" />
    <glyph glyph-name="r" unicode="r" horiz-adv-x="851" 
d="M123 0v1024h303l31 -231q53 119 142.5 185t191.5 66l26 -337q-113 0 -208 -26t-148 -65v-616h-338z" />
    <glyph glyph-name="s" unicode="s" horiz-adv-x="1044" 
d="M68 66l55 231q82 -38 186.5 -57t184.5 -19q137 0 137 84q0 31 -30.5 53t-79 36.5t-107 28.5t-117.5 36.5t-107.5 53.5t-79 86t-30.5 128q0 159 124.5 238t338.5 79q121 0 240.5 -24.5t191.5 -61.5l-53 -231q-82 38 -186.5 57t-184.5 19q-60 0 -92.5 -20.5t-32.5 -55.5
q0 -29 30.5 -50.5t79 -35.5t107.5 -28.5t117.5 -36.5t107 -52t79 -82.5t30.5 -122.5q0 -163 -119.5 -251t-355.5 -88q-122 0 -241 24t-193 62z" />
    <glyph glyph-name="t" unicode="t" horiz-adv-x="860" 
d="M39 774v250h158v313l338 56v-369h274v-250h-274v-434q0 -53 28 -81t94 -28q70 0 136 25l36 -238q-109 -38 -270 -38q-362 0 -362 352v442h-158z" />
    <glyph glyph-name="u" unicode="u" horiz-adv-x="1230" 
d="M113 365v643l338 36v-669q0 -70 39.5 -107t115.5 -37q90 0 164 70v723h338v-1024h-303l-33 143q-108 -163 -305 -163q-173 0 -263.5 96.5t-90.5 288.5z" />
    <glyph glyph-name="v" unicode="v" horiz-adv-x="1251" 
d="M29 1024h364l242 -614l221 614h367l-447 -1036h-301z" />
    <glyph glyph-name="w" unicode="w" horiz-adv-x="1738" 
d="M29 1024h323l178 -664l187 664h287l204 -664l178 664h324l-311 -1036h-352l-187 573l-168 -573h-352z" />
    <glyph glyph-name="x" unicode="x" horiz-adv-x="1167" 
d="M6 0l385 541l-362 483h377l180 -258l172 258h362l-346 -477l387 -547h-397l-191 289l-196 -289h-371z" />
    <glyph glyph-name="y" unicode="y" 
d="M29 1024h348l260 -631l240 631h348l-457 -1055q-39 -89 -72 -150.5t-78.5 -120t-96.5 -93t-121 -55.5t-156 -21q-98 0 -189 27l39 239q78 -16 139 -16q69 0 117 32.5t86 104.5l39 78z" />
    <glyph glyph-name="z" unicode="z" horiz-adv-x="1048" 
d="M63 0v201l455 573h-426v250h852v-199l-455 -573h496v-252h-922z" />
    <glyph glyph-name="braceleft" unicode="{" horiz-adv-x="741" 
d="M102 596v201q82 0 124 33.5t42 107.5q0 48 -20.5 179t-20.5 198q0 91 30 160.5t77 110.5t114 66.5t132 34.5t141 9v-217q-108 0 -148.5 -43t-40.5 -136q0 -55 17.5 -169.5t17.5 -157.5q0 -52 -14 -97t-44 -84t-83 -64.5t-125 -31.5q72 -6 125 -31t83 -64t44 -84t14 -97
q0 -43 -17.5 -158t-17.5 -170q0 -93 40.5 -135.5t148.5 -42.5v-217q-76 0 -141 9t-132 34.5t-114 66.5t-77 110.5t-30 160.5q0 67 20.5 198t20.5 179q0 74 -42 107.5t-124 33.5z" />
    <glyph glyph-name="bar" unicode="|" horiz-adv-x="475" 
d="M133 -256v1905h209v-1905h-209z" />
    <glyph glyph-name="braceright" unicode="}" horiz-adv-x="741" 
d="M20 -86q106 0 147.5 43t41.5 135q0 55 -17.5 170t-17.5 158q0 110 63.5 187.5t200.5 88.5q-137 11 -200.5 89t-63.5 188q0 43 17.5 157.5t17.5 169.5q0 92 -41.5 135.5t-147.5 43.5v217q75 0 140.5 -9t132 -34.5t113.5 -67t76.5 -110.5t29.5 -160q0 -67 -20.5 -198
t-20.5 -179q0 -141 168 -141v-201q-168 0 -168 -141q0 -48 20.5 -179t20.5 -198q0 -91 -29.5 -160t-76.5 -110.5t-113.5 -67t-132 -34.5t-140.5 -9v217z" />
    <glyph glyph-name="asciitilde" unicode="~" horiz-adv-x="1032" 
d="M113 514q0 87 15.5 145.5t44 86.5t58 38.5t68.5 10.5q43 0 204.5 -37t190.5 -37q28 0 47 20t19 54h166q0 -86 -15.5 -144.5t-44 -86.5t-58.5 -39t-69 -11q-53 0 -209.5 38t-183.5 38q-28 0 -47.5 -20.5t-19.5 -55.5h-166z" />
    <glyph glyph-name="uni00A0" unicode="&#xa0;" horiz-adv-x="456" 
 />
    <glyph glyph-name="exclamdown" unicode="&#xa1;" horiz-adv-x="532" 
d="M86 -369l53 973h252l53 -973h-358zM127 748v276h276v-276h-276z" />
    <glyph glyph-name="cent" unicode="&#xa2;" horiz-adv-x="1132" 
d="M86 512q0 236 140.5 379t391.5 153v195h211v-209q115 -21 218 -72l-56 -239q-78 39 -162 59v-532q84 20 162 59l56 -237q-99 -52 -218 -74v-250h-211v236q-251 10 -391.5 154t-140.5 378zM434 512q0 -116 50.5 -184t133.5 -88v546q-83 -22 -133.5 -90t-50.5 -184z" />
    <glyph glyph-name="sterling" unicode="&#xa3;" horiz-adv-x="1341" 
d="M68 0v287h157v278h-157v252h157v111q0 123 48 218.5t128 152t176.5 85.5t202.5 29q153 0 264 -24.5t228 -75.5l-39 -295q-209 108 -434 108q-94 0 -151.5 -48.5t-57.5 -149.5v-111h373v-252h-373v-278h645l39 -287h-1206z" />
    <glyph glyph-name="currency" unicode="&#xa4;" horiz-adv-x="1492" 
d="M68 475v150h139q-4 46 -4 71q0 26 4 72h-139v150h163q64 231 255.5 363t474.5 132q148 0 254.5 -25.5t207.5 -74.5l-53 -312q-103 66 -194.5 95.5t-198.5 29.5q-131 0 -225.5 -52.5t-141.5 -155.5h359v-150h-398q-4 -46 -4 -72q0 -25 4 -71h398v-150h-359
q45 -103 136.5 -156t214.5 -53q114 0 232.5 32t213.5 95v-313q-102 -49 -209.5 -74.5t-253.5 -25.5q-274 0 -461.5 132t-251.5 363h-163z" />
    <glyph glyph-name="yen" unicode="&#xa5;" horiz-adv-x="1480" 
d="M45 1374l356 37l332 -661l328 643h373l-418 -768h297v-252h-410v-373h-356v373h-410v252h301z" />
    <glyph glyph-name="brokenbar" unicode="&#xa6;" horiz-adv-x="485" 
d="M137 -256v778h211v-778h-211zM137 870v779h211v-779h-211z" />
    <glyph glyph-name="section" unicode="&#xa7;" horiz-adv-x="1257" 
d="M147 516q0 206 162 348q-26 63 -26 135q0 108 43 189t120.5 129.5t179 72t226.5 23.5v-287q-48 0 -81.5 -4t-63.5 -14.5t-45 -33t-15 -56.5q0 -37 25.5 -70.5t66.5 -62.5t91 -60t99.5 -69t90.5 -82.5t66.5 -108t25.5 -137.5q0 -206 -164 -346q27 -66 27 -135
q0 -108 -43 -189t-120.5 -129.5t-179 -72t-226.5 -23.5v285q48 0 81 4t63 15t45 33.5t15 57.5q0 37 -25.5 70.5t-66.5 62.5t-90.5 60t-98.5 69t-90 82.5t-66.5 107t-25.5 136.5zM469 580q-1 -38 11.5 -71.5t29.5 -56.5t51 -50t58 -42t70 -42.5t69 -41.5q30 52 30 89
q1 38 -11.5 72t-29.5 57t-51 50t-57.5 42t-69.5 42.5t-69 41.5q-28 -48 -31 -90z" />
    <glyph glyph-name="dieresis" unicode="&#xa8;" horiz-adv-x="993" 
d="M47 1360l215 201l207 -201l-207 -203zM524 1360l215 201l207 -201l-207 -203z" />
    <glyph glyph-name="copyright" unicode="&#xa9;" horiz-adv-x="1802" 
d="M102 696q0 162 63.5 310t170.5 255t255 170.5t310 63.5t310 -63.5t255 -170.5t170.5 -255t63.5 -310t-63.5 -310t-170.5 -254.5t-255 -170t-310 -63.5t-310 63.5t-255 170t-170.5 254.5t-63.5 310zM184 696q0 -145 57 -278t153 -228.5t228.5 -152.5t278.5 -57t278.5 57
t228.5 152.5t153 228.5t57 278t-57 278t-153 229t-229 153t-278 57t-278 -57t-229 -153t-153 -229t-57 -278zM426 692q0 229 142.5 365.5t383.5 136.5q178 0 326 -74l-35 -200q-140 90 -280 90q-139 0 -221.5 -83t-82.5 -235q0 -151 80 -234t211 -83q80 0 165 23t153 67
v-201q-151 -74 -326 -74q-234 0 -375 137t-141 365z" />
    <glyph glyph-name="ordfeminine" unicode="&#xaa;" horiz-adv-x="921" 
d="M55 420v147h809v-147h-809zM61 877q0 121 93 178t258 57q76 0 131 -8v49q0 96 -154 96q-121 0 -256 -53l-37 158q142 59 324 59q167 0 253.5 -71t86.5 -203v-248q0 -32 10.5 -46t40.5 -14q21 0 41 5v-154q-54 -14 -115 -14q-155 0 -186 120q-87 -120 -250 -120
q-110 0 -175 59.5t-65 149.5zM287 909q0 -38 28.5 -58t73.5 -20q90 0 154 64v94q-46 10 -115 10q-141 0 -141 -90z" />
    <glyph glyph-name="guillemotleft" unicode="&#xab;" horiz-adv-x="1120" 
d="M59 512l363 422h217l-342 -422l342 -422h-217zM469 512l362 422h218l-342 -422l342 -422h-218z" />
    <glyph glyph-name="logicalnot" unicode="&#xac;" horiz-adv-x="1148" 
d="M78 762v252h934v-723h-252v471h-682z" />
    <glyph glyph-name="uni00AD" unicode="&#xad;" horiz-adv-x="946" 
d="M109 475v252h729v-252h-729z" />
    <glyph glyph-name="registered" unicode="&#xae;" horiz-adv-x="1802" 
d="M102 696q0 162 63.5 310t170.5 255t255 170.5t310 63.5t310 -63.5t255 -170.5t170.5 -255t63.5 -310t-63.5 -310t-170.5 -254.5t-255 -170t-310 -63.5t-310 63.5t-255 170t-170.5 254.5t-63.5 310zM184 696q0 -145 57 -278t153 -228.5t228.5 -152.5t278.5 -57t278.5 57
t228.5 152.5t153 228.5t57 278t-57 278t-153 229t-229 153t-278 57t-278 -57t-229 -153t-153 -229t-57 -278zM522 205v975h434q371 0 371 -314q0 -103 -52.5 -175t-146.5 -103l244 -373l-235 -25l-234 361h-151v-346h-230zM752 737h184q156 0 156 129t-156 129h-184v-258z
" />
    <glyph glyph-name="macron" unicode="&#xaf;" horiz-adv-x="872" 
d="M102 1153v201h668v-201h-668z" />
    <glyph glyph-name="degree" unicode="&#xb0;" horiz-adv-x="798" 
d="M86 1100q0 129 91.5 221t221.5 92q129 0 221.5 -92t92.5 -221q0 -132 -90.5 -223t-223.5 -91q-130 0 -221.5 91.5t-91.5 222.5zM262 1100q0 -57 40 -97t97 -40q56 0 96 40t40 97q0 55 -40 95t-96 40q-57 0 -97 -39.5t-40 -95.5z" />
    <glyph glyph-name="plusminus" unicode="&#xb1;" horiz-adv-x="1236" 
d="M111 59v252h1013v-252h-1013zM111 643v252h381v264h251v-264h381v-252h-381v-264h-251v264h-381z" />
    <glyph glyph-name="uni00B2" unicode="&#xb2;" horiz-adv-x="874" 
d="M61 629v108q0 74 27.5 135t71.5 102t97 76t106 63.5t97 56.5t71.5 64.5t27.5 78.5q0 131 -168 131q-112 0 -278 -98l-27 178q177 94 332 94q107 0 190 -29t136 -97t53 -167q0 -62 -26.5 -117t-69 -94.5t-93.5 -74.5t-102 -63t-93.5 -54t-69 -53.5t-26.5 -55.5h469
l25 -184h-750z" />
    <glyph glyph-name="uni00B3" unicode="&#xb3;" horiz-adv-x="847" 
d="M27 690l59 160q163 -62 281 -62q192 0 192 132q0 67 -52 97t-159 30h-82v163h82q105 0 153 29.5t48 91.5q0 119 -164 119q-63 0 -116 -14t-148 -50l-58 162q174 76 357 76q158 0 250 -70t92 -200q0 -164 -174 -226q203 -54 203 -231q0 -135 -102.5 -209t-287.5 -74
q-218 0 -374 76z" />
    <glyph glyph-name="acute" unicode="&#xb4;" horiz-adv-x="657" 
d="M102 1270l361 260l129 -225l-397 -179z" />
    <glyph glyph-name="uni00B5" unicode="&#xb5;" horiz-adv-x="1241" 
d="M-109 -451l37 240q50 -10 90 -10q105 0 105 102v938v189l338 36v-669q0 -70 39.5 -107t115.5 -37q90 0 164 70v723h338v-1024h-303l-33 143q-108 -163 -305 -163q-47 0 -84 6v-95q0 -166 -79.5 -264t-247.5 -98q-100 0 -175 20z" />
    <glyph glyph-name="paragraph" unicode="&#xb6;" horiz-adv-x="1290" 
d="M63 926q0 218 139.5 342.5t401.5 124.5h207v-1393h-182v457h-25q-263 0 -402 125t-139 344zM936 0v1393h184v-1393h-184z" />
    <glyph glyph-name="periodcentered" unicode="&#xb7;" horiz-adv-x="497" 
d="M111 362v277h276v-277h-276z" />
    <glyph glyph-name="cedilla" unicode="&#xb8;" horiz-adv-x="555" 
d="M61 -434l48 108q22 -12 64.5 -24t78.5 -12q47 0 73.5 20t26.5 57q0 18 -5.5 31.5t-21 23.5t-30 16t-46.5 11.5t-57 8.5t-73 8l41 196h129l-21 -98q119 -21 172.5 -65.5t53.5 -131.5t-63 -143.5t-177 -56.5q-54 0 -107 15t-86 36z" />
    <glyph glyph-name="uni00B9" unicode="&#xb9;" horiz-adv-x="729" 
d="M41 1481l260 131h199v-799h182l25 -184h-646v184h209v578l-170 -84z" />
    <glyph glyph-name="ordmasculine" unicode="&#xba;" horiz-adv-x="921" 
d="M55 1040q0 76 26 143t75 118.5t126.5 81.5t172.5 30q127 0 219.5 -52t137 -135t44.5 -186q0 -157 -106.5 -264.5t-294.5 -107.5t-294 107t-106 265zM57 420v147h809v-147h-809zM281 1040q0 -88 43 -148.5t131 -60.5q90 0 134 60.5t44 148.5t-44 148.5t-134 60.5
q-88 0 -131 -60.5t-43 -148.5z" />
    <glyph glyph-name="guillemotright" unicode="&#xbb;" horiz-adv-x="1120" 
d="M70 90l344 422l-344 422h219l360 -422l-360 -422h-219zM479 90l344 422l-344 422h219l361 -422l-361 -422h-219z" />
    <glyph glyph-name="onequarter" unicode="&#xbc;" horiz-adv-x="2267" 
d="M41 1276l260 131h199v-799h182l25 -184h-646v184h209v578l-170 -84zM631 0l817 1393h219l-817 -1393h-219zM1368 178v174l496 623h235v-623h129v-174h-129v-178h-229v178h-502zM1597 352h273v353z" />
    <glyph glyph-name="onehalf" unicode="&#xbd;" horiz-adv-x="2390" 
d="M41 1276l260 131h199v-799h182l25 -184h-646v184h209v578l-170 -84zM631 0l817 1393h219l-817 -1393h-219zM1577 0v109q0 74 27.5 135t71.5 102t97 75.5t106 63t97 56.5t71.5 64.5t27.5 78.5q0 131 -168 131q-113 0 -279 -98l-26 178q177 94 331 94q107 0 190 -29
t136 -97t53 -167q0 -72 -35.5 -134.5t-88.5 -104t-115.5 -80.5t-115.5 -67t-88.5 -61t-35.5 -65h469l25 -184h-750z" />
    <glyph glyph-name="threequarters" unicode="&#xbe;" horiz-adv-x="2324" 
d="M27 485l59 160q160 -61 281 -61q192 0 192 131q0 67 -52 97t-159 30h-82v164h82q105 0 153 29t48 91q0 119 -164 119q-63 0 -116.5 -13.5t-147.5 -49.5l-58 161q174 76 357 76q158 0 250 -70t92 -200q0 -163 -174 -225q203 -54 203 -232q0 -135 -102.5 -208.5
t-287.5 -73.5q-220 0 -374 75zM686 0l817 1393h219l-817 -1393h-219zM1425 178v174l496 623h236v-623h129v-174h-129v-178h-230v178h-502zM1655 352h272v353z" />
    <glyph glyph-name="questiondown" unicode="&#xbf;" horiz-adv-x="1099" 
d="M66 25q0 87 27 154.5t70 109t94.5 73.5t103.5 56t95 48.5t70 59.5t27 80h270q0 -92 -22 -163.5t-56.5 -115t-77 -77t-84.5 -57t-76.5 -45.5t-56.5 -53t-22 -70q0 -72 54 -99.5t153 -27.5q188 0 438 125l37 -312q-150 -53 -262.5 -76.5t-265.5 -23.5q-105 0 -195.5 24
t-163.5 72t-115 129.5t-42 188.5zM549 748v276h276v-276h-276z" />
    <glyph glyph-name="Agrave" unicode="&#xc0;" horiz-adv-x="1470" 
d="M-6 0l538 1384l422 37l523 -1403l-357 -36l-96 276h-571l-95 -258h-364zM342 1673l129 225l360 -260l-92 -143zM555 545h369l-183 516z" />
    <glyph glyph-name="Aacute" unicode="&#xc1;" horiz-adv-x="1470" 
d="M-6 0l538 1384l422 37l523 -1403l-357 -36l-96 276h-571l-95 -258h-364zM555 545h369l-183 516zM655 1638l361 260l129 -225l-397 -178z" />
    <glyph glyph-name="Acircumflex" unicode="&#xc2;" horiz-adv-x="1470" 
d="M-6 0l538 1384l422 37l523 -1403l-357 -36l-96 276h-571l-95 -258h-364zM395 1638l350 260l349 -260l-90 -143l-259 160l-260 -160zM555 545h369l-183 516z" />
    <glyph glyph-name="Atilde" unicode="&#xc3;" horiz-adv-x="1470" 
d="M-6 0l538 1384l422 37l523 -1403l-357 -36l-96 276h-571l-95 -258h-364zM412 1505q0 69 11 121t28 82t42 48t50 24t55 6q43 0 131 -38t117 -38q28 0 46.5 20.5t18.5 55.5h168q0 -69 -11 -121t-28 -82t-42.5 -48t-50 -24t-54.5 -6q-55 0 -138 38t-110 38
q-28 0 -47.5 -20.5t-19.5 -55.5h-166zM555 545h369l-183 516z" />
    <glyph glyph-name="Adieresis" unicode="&#xc4;" horiz-adv-x="1470" 
d="M-6 0l538 1384l422 37l523 -1403l-357 -36l-96 276h-571l-95 -258h-364zM291 1729l215 200l207 -200l-207 -203zM555 545h369l-183 516zM768 1729l215 200l207 -200l-207 -203z" />
    <glyph glyph-name="Aring" unicode="&#xc5;" horiz-adv-x="1470" 
d="M-6 0l538 1384l422 37l523 -1403l-357 -36l-96 276h-571l-95 -258h-364zM535 1704q0 86 61 147.5t147 61.5t147.5 -61.5t61.5 -147.5q0 -88 -60 -148.5t-149 -60.5q-86 0 -147 61.5t-61 147.5zM555 545h369l-183 516zM657 1704q0 -35 25.5 -60.5t60.5 -25.5t59.5 25.5
t24.5 60.5t-24.5 59.5t-59.5 24.5t-60.5 -24.5t-25.5 -59.5z" />
    <glyph glyph-name="AE" unicode="&#xc6;" horiz-adv-x="2191" 
d="M-31 0l895 1393h1219v-287h-660v-256h580l39 -285h-619v-278h680v-287h-1034v258h-539l-161 -258h-400zM694 526h375v580h-12z" />
    <glyph glyph-name="Ccedilla" unicode="&#xc7;" horiz-adv-x="1368" 
d="M72 696q0 327 204 522t553 195q146 0 253.5 -25.5t209.5 -74.5l-55 -312q-102 66 -193 95.5t-198 29.5q-191 0 -300.5 -110t-109.5 -320q0 -209 106.5 -319.5t284.5 -110.5q114 0 234 32t215 95v-313q-194 -93 -426 -100l-14 -68q119 -21 172 -65.5t53 -131.5t-63 -143.5
t-177 -56.5q-54 0 -106.5 14.5t-85.5 36.5l47 108q22 -12 64.5 -24t78.5 -12q47 0 74 20t27 57q0 18 -5.5 31.5t-21 23.5t-30.5 16t-47 11.5t-57 8.5t-73 8l35 170q-298 26 -473.5 218t-175.5 494z" />
    <glyph glyph-name="Egrave" unicode="&#xc8;" 
d="M145 0v1393h1002v-287h-647v-254h569l37 -287h-606v-278h667v-287h-1022zM256 1673l129 225l360 -260l-92 -143z" />
    <glyph glyph-name="Eacute" unicode="&#xc9;" 
d="M145 0v1393h1002v-287h-647v-254h569l37 -287h-606v-278h667v-287h-1022zM569 1638l361 260l129 -225l-397 -178z" />
    <glyph glyph-name="Ecircumflex" unicode="&#xca;" 
d="M145 0v1393h1002v-287h-647v-254h569l37 -287h-606v-278h667v-287h-1022zM309 1638l350 260l349 -260l-90 -143l-259 160l-260 -160z" />
    <glyph glyph-name="Edieresis" unicode="&#xcb;" 
d="M145 0v1393h1002v-287h-647v-254h569l37 -287h-606v-278h667v-287h-1022zM205 1729l215 200l207 -200l-207 -203zM682 1729l215 200l207 -200l-207 -203z" />
    <glyph glyph-name="Igrave" unicode="&#xcc;" horiz-adv-x="645" 
d="M-80 1673l129 225l361 -260l-93 -143zM145 0v1374l355 37v-1411h-355z" />
    <glyph glyph-name="Iacute" unicode="&#xcd;" horiz-adv-x="645" 
d="M145 0v1374l355 37v-1411h-355zM236 1638l360 260l129 -225l-397 -178z" />
    <glyph glyph-name="Icircumflex" unicode="&#xce;" horiz-adv-x="645" 
d="M-27 1638l351 260l348 -260l-90 -143l-258 160l-261 -160zM145 0v1374l355 37v-1411h-355z" />
    <glyph glyph-name="Idieresis" unicode="&#xcf;" horiz-adv-x="645" 
d="M-131 1729l215 200l207 -200l-207 -203zM145 0v1374l355 37v-1411h-355zM346 1729l215 200l207 -200l-207 -203z" />
    <glyph glyph-name="Eth" unicode="&#xd0;" horiz-adv-x="1550" 
d="M25 580v251h120v562h539q177 0 322 -54t240 -148.5t146.5 -221.5t51.5 -273q0 -148 -51.5 -275t-146.5 -220.5t-240 -147t-322 -53.5h-539v580h-120zM500 287h184q187 0 291 109t104 300t-104 300.5t-291 109.5h-184v-275h243v-251h-243v-293z" />
    <glyph glyph-name="Ntilde" unicode="&#xd1;" horiz-adv-x="1572" 
d="M145 0v1393h347l616 -844v825l319 37v-1411h-346l-616 860v-860h-320zM467 1505q0 69 11 121t28 82t42 48t50 24t55 6q43 0 131 -38t117 -38q28 0 47 20.5t19 55.5h168q0 -86 -16 -144.5t-44.5 -86.5t-58.5 -39t-68 -11q-55 0 -138 38t-110 38q-28 0 -47.5 -20.5
t-19.5 -55.5h-166z" />
    <glyph glyph-name="Ograve" unicode="&#xd2;" horiz-adv-x="1648" 
d="M72 696q0 147 49 276t141.5 228t237.5 156t325 57q179 0 324 -57t237.5 -156t141.5 -228t49 -276q0 -149 -49 -278t-141.5 -227t-237 -154.5t-324.5 -56.5t-325 56.5t-237.5 154.5t-141.5 227t-49 278zM422 1673l129 225l360 -260l-92 -143zM434 696q0 -196 100 -313
t289 -117q190 0 289.5 117t99.5 313t-99.5 313t-289.5 117q-189 0 -289 -117t-100 -313z" />
    <glyph glyph-name="Oacute" unicode="&#xd3;" horiz-adv-x="1648" 
d="M72 696q0 147 49 276t141.5 228t237.5 156t325 57q179 0 324 -57t237.5 -156t141.5 -228t49 -276q0 -149 -49 -278t-141.5 -227t-237 -154.5t-324.5 -56.5t-325 56.5t-237.5 154.5t-141.5 227t-49 278zM434 696q0 -196 100 -313t289 -117q190 0 289.5 117t99.5 313
t-99.5 313t-289.5 117q-189 0 -289 -117t-100 -313zM737 1638l361 260l129 -225l-398 -178z" />
    <glyph glyph-name="Ocircumflex" unicode="&#xd4;" horiz-adv-x="1648" 
d="M72 696q0 147 49 276t141.5 228t237.5 156t325 57q179 0 324 -57t237.5 -156t141.5 -228t49 -276q0 -149 -49 -278t-141.5 -227t-237 -154.5t-324.5 -56.5t-325 56.5t-237.5 154.5t-141.5 227t-49 278zM434 696q0 -196 100 -313t289 -117q190 0 289.5 117t99.5 313
t-99.5 313t-289.5 117q-189 0 -289 -117t-100 -313zM475 1638l350 260l349 -260l-91 -143l-258 160l-260 -160z" />
    <glyph glyph-name="Otilde" unicode="&#xd5;" horiz-adv-x="1648" 
d="M72 696q0 147 49 276t141.5 228t237.5 156t325 57q179 0 324 -57t237.5 -156t141.5 -228t49 -276q0 -149 -49 -278t-141.5 -227t-237 -154.5t-324.5 -56.5t-325 56.5t-237.5 154.5t-141.5 227t-49 278zM434 696q0 -196 100 -313t289 -117q190 0 289.5 117t99.5 313
t-99.5 313t-289.5 117q-189 0 -289 -117t-100 -313zM492 1505q0 69 11 121t28 82t42 48t50 24t55 6q43 0 131 -38t117 -38q28 0 46.5 20.5t18.5 55.5h168q0 -69 -11 -121t-28 -82t-42.5 -48t-50 -24t-54.5 -6q-55 0 -138 38t-110 38q-28 0 -48 -20.5t-20 -55.5h-165z" />
    <glyph glyph-name="Odieresis" unicode="&#xd6;" horiz-adv-x="1648" 
d="M72 696q0 147 49 276t141.5 228t237.5 156t325 57q179 0 324 -57t237.5 -156t141.5 -228t49 -276q0 -149 -49 -278t-141.5 -227t-237 -154.5t-324.5 -56.5t-325 56.5t-237.5 154.5t-141.5 227t-49 278zM371 1729l215 200l207 -200l-207 -203zM434 696q0 -196 100 -313
t289 -117q190 0 289.5 117t99.5 313t-99.5 313t-289.5 117q-189 0 -289 -117t-100 -313zM848 1729l215 200l207 -200l-207 -203z" />
    <glyph glyph-name="multiply" unicode="&#xd7;" horiz-adv-x="1067" 
d="M53 350l178 -178l301 303l304 -303l178 178l-303 303l303 301l-178 179l-304 -302l-301 302l-178 -179l301 -301z" />
    <glyph glyph-name="Oslash" unicode="&#xd8;" horiz-adv-x="1648" 
d="M72 696q0 147 49 276t141.5 228t237.5 156t325 57q182 0 332 -59l103 141h270l-184 -258q113 -97 172 -237.5t59 -303.5q0 -149 -49 -278t-141.5 -227t-237 -154.5t-324.5 -56.5q-188 0 -333 59l-101 -141h-272l184 256q-114 98 -172.5 238t-58.5 304zM434 696
q0 -155 66 -266l479 672q-67 24 -156 24q-189 0 -289 -117t-100 -313zM670 291q70 -25 153 -25q190 0 289.5 117t99.5 313q0 160 -63 265z" />
    <glyph glyph-name="Ugrave" unicode="&#xd9;" horiz-adv-x="1531" 
d="M133 504v870l354 37v-829q0 -164 63 -240t216 -76q154 0 216 75.5t62 240.5v792l355 37v-907q0 -85 -23 -161.5t-73 -143.5t-123 -115t-179 -76t-235 -28q-160 0 -284.5 43t-199 117t-112 166t-37.5 198zM365 1673l129 225l360 -260l-92 -143z" />
    <glyph glyph-name="Uacute" unicode="&#xda;" horiz-adv-x="1531" 
d="M133 504v870l354 37v-829q0 -164 63 -240t216 -76q154 0 216 75.5t62 240.5v792l355 37v-907q0 -85 -23 -161.5t-73 -143.5t-123 -115t-179 -76t-235 -28q-160 0 -284.5 43t-199 117t-112 166t-37.5 198zM678 1638l360 260l129 -225l-397 -178z" />
    <glyph glyph-name="Ucircumflex" unicode="&#xdb;" horiz-adv-x="1531" 
d="M133 504v870l354 37v-829q0 -164 63 -240t216 -76q154 0 216 75.5t62 240.5v792l355 37v-907q0 -85 -23 -161.5t-73 -143.5t-123 -115t-179 -76t-235 -28q-160 0 -284.5 43t-199 117t-112 166t-37.5 198zM418 1638l350 260l348 -260l-90 -143l-258 160l-260 -160z" />
    <glyph glyph-name="Udieresis" unicode="&#xdc;" horiz-adv-x="1531" 
d="M133 504v870l354 37v-829q0 -164 63 -240t216 -76q154 0 216 75.5t62 240.5v792l355 37v-907q0 -85 -23 -161.5t-73 -143.5t-123 -115t-179 -76t-235 -28q-160 0 -284.5 43t-199 117t-112 166t-37.5 198zM313 1729l215 200l207 -200l-207 -203zM791 1729l215 200
l206 -200l-206 -203z" />
    <glyph glyph-name="Yacute" unicode="&#xdd;" horiz-adv-x="1411" 
d="M12 1374l355 37l333 -661l326 643h373l-531 -977v-416h-354v418zM608 1638l361 260l129 -225l-398 -178z" />
    <glyph glyph-name="Thorn" unicode="&#xde;" horiz-adv-x="1402" 
d="M145 0v1374l355 37v-229h266q267 0 418 -129t151 -346t-151 -346.5t-418 -129.5h-266v-231h-355zM500 518h250q103 0 162 52t59 137t-59 136.5t-162 51.5h-250v-377z" />
    <glyph glyph-name="germandbls" unicode="&#xdf;" horiz-adv-x="1245" 
d="M123 0v1120q0 175 102 275t310 100q162 0 262 -41l-56 -233q-70 24 -145 24q-135 0 -135 -135v-86h674l-158 -381q213 -152 213 -414q0 -246 -157.5 -390t-428.5 -144v268q119 0 175.5 64.5t56.5 201.5q0 93 -66.5 169.5t-159.5 95.5l125 280h-274v-774h-338z" />
    <glyph glyph-name="agrave" unicode="&#xe0;" horiz-adv-x="1220" 
d="M72 276q0 175 132 258.5t371 83.5q63 0 173 -12v66q0 123 -207 123q-101 0 -184 -18.5t-181 -57.5l-55 239q201 86 469 86q244 0 369.5 -103.5t125.5 -295.5v-334q0 -44 14.5 -63t53.5 -19q24 0 51 9v-238q-75 -20 -166 -20q-118 0 -184.5 41.5t-91.5 125.5
q-37 -52 -81.5 -87t-91.5 -51.5t-87.5 -22.5t-87.5 -6q-158 0 -250 84t-92 212zM199 1305l129 225l360 -260l-92 -144zM418 330q0 -50 37.5 -74.5t95.5 -24.5q115 0 197 76v119q-70 12 -146 12q-184 0 -184 -108z" />
    <glyph glyph-name="aacute" unicode="&#xe1;" horiz-adv-x="1220" 
d="M72 276q0 175 132 258.5t371 83.5q63 0 173 -12v66q0 123 -207 123q-101 0 -184 -18.5t-181 -57.5l-55 239q201 86 469 86q244 0 369.5 -103.5t125.5 -295.5v-334q0 -44 14.5 -63t53.5 -19q24 0 51 9v-238q-75 -20 -166 -20q-118 0 -184.5 41.5t-91.5 125.5
q-37 -52 -81.5 -87t-91.5 -51.5t-87.5 -22.5t-87.5 -6q-158 0 -250 84t-92 212zM418 330q0 -50 37.5 -74.5t95.5 -24.5q115 0 197 76v119q-70 12 -146 12q-184 0 -184 -108zM512 1270l360 260l129 -225l-397 -179z" />
    <glyph glyph-name="acircumflex" unicode="&#xe2;" horiz-adv-x="1220" 
d="M72 276q0 175 132 258.5t371 83.5q63 0 173 -12v66q0 123 -207 123q-101 0 -184 -18.5t-181 -57.5l-55 239q201 86 469 86q244 0 369.5 -103.5t125.5 -295.5v-334q0 -44 14.5 -63t53.5 -19q24 0 51 9v-238q-75 -20 -166 -20q-118 0 -184.5 41.5t-91.5 125.5
q-37 -52 -81.5 -87t-91.5 -51.5t-87.5 -22.5t-87.5 -6q-158 0 -250 84t-92 212zM252 1270l350 260l348 -260l-90 -144l-258 160l-260 -160zM418 330q0 -50 37.5 -74.5t95.5 -24.5q115 0 197 76v119q-70 12 -146 12q-184 0 -184 -108z" />
    <glyph glyph-name="atilde" unicode="&#xe3;" horiz-adv-x="1220" 
d="M72 276q0 175 132 258.5t371 83.5q63 0 173 -12v66q0 123 -207 123q-101 0 -184 -18.5t-181 -57.5l-55 239q201 86 469 86q244 0 369.5 -103.5t125.5 -295.5v-334q0 -44 14.5 -63t53.5 -19q24 0 51 9v-238q-75 -20 -166 -20q-118 0 -184.5 41.5t-91.5 125.5
q-37 -52 -81.5 -87t-91.5 -51.5t-87.5 -22.5t-87.5 -6q-158 0 -250 84t-92 212zM266 1137q0 86 15.5 144.5t44 86.5t58.5 38.5t69 10.5q43 0 130.5 -38t116.5 -38q28 0 47 20.5t19 55.5h168q0 -86 -15.5 -144.5t-44.5 -86.5t-58.5 -38.5t-67.5 -10.5q-55 0 -138 37.5
t-110 37.5q-28 0 -48 -20t-20 -55h-166zM418 330q0 -50 37.5 -74.5t95.5 -24.5q115 0 197 76v119q-70 12 -146 12q-184 0 -184 -108z" />
    <glyph glyph-name="adieresis" unicode="&#xe4;" horiz-adv-x="1220" 
d="M72 276q0 175 132 258.5t371 83.5q63 0 173 -12v66q0 123 -207 123q-101 0 -184 -18.5t-181 -57.5l-55 239q201 86 469 86q244 0 369.5 -103.5t125.5 -295.5v-334q0 -44 14.5 -63t53.5 -19q24 0 51 9v-238q-75 -20 -166 -20q-118 0 -184.5 41.5t-91.5 125.5
q-37 -52 -81.5 -87t-91.5 -51.5t-87.5 -22.5t-87.5 -6q-158 0 -250 84t-92 212zM147 1360l215 201l207 -201l-207 -203zM418 330q0 -50 37.5 -74.5t95.5 -24.5q115 0 197 76v119q-70 12 -146 12q-184 0 -184 -108zM625 1360l215 201l207 -201l-207 -203z" />
    <glyph glyph-name="aring" unicode="&#xe5;" horiz-adv-x="1220" 
d="M72 276q0 175 132 258.5t371 83.5q63 0 173 -12v66q0 123 -207 123q-101 0 -184 -18.5t-181 -57.5l-55 239q201 86 469 86q244 0 369.5 -103.5t125.5 -295.5v-334q0 -44 14.5 -63t53.5 -19q24 0 51 9v-238q-75 -20 -166 -20q-118 0 -184.5 41.5t-91.5 125.5
q-37 -52 -81.5 -87t-91.5 -51.5t-87.5 -22.5t-87.5 -6q-158 0 -250 84t-92 212zM391 1335q0 86 61.5 147.5t147.5 61.5t147.5 -61.5t61.5 -147.5q0 -88 -60 -148.5t-149 -60.5q-86 0 -147.5 61.5t-61.5 147.5zM418 330q0 -50 37.5 -74.5t95.5 -24.5q115 0 197 76v119
q-70 12 -146 12q-184 0 -184 -108zM514 1335q0 -35 25.5 -60.5t60.5 -25.5t59.5 25.5t24.5 60.5t-24.5 59.5t-59.5 24.5t-60.5 -24.5t-25.5 -59.5z" />
    <glyph glyph-name="ae" unicode="&#xe6;" horiz-adv-x="1890" 
d="M72 276q0 176 132.5 260.5t370.5 84.5q72 0 173 -11v62q0 123 -207 123q-101 0 -184 -18.5t-181 -57.5l-55 239q201 86 469 86q236 0 364 -98q143 98 355 98q107 0 193 -26.5t143 -72t95 -110.5t55 -138t17 -158q0 -26 -6 -119h-702q48 -207 274 -207q174 0 338 76
l53 -221q-73 -38 -190.5 -63t-237.5 -25q-367 0 -514 225q-127 -225 -413 -225q-158 0 -250 84t-92 212zM418 330q0 -50 37.5 -74.5t95.5 -24.5q66 0 118 24.5t103 76.5q-13 42 -20 96q-82 14 -150 14q-184 0 -184 -112zM1104 627h371q0 82 -42.5 133t-132.5 51
q-159 0 -196 -184z" />
    <glyph glyph-name="ccedilla" unicode="&#xe7;" horiz-adv-x="1095" 
d="M78 512q0 244 150 388t417 144q217 0 393 -86l-55 -239q-164 76 -299 76q-112 0 -185 -71t-73 -212t72.5 -211t185.5 -70q139 0 299 74l55 -237q-147 -77 -346 -88l-14 -68q119 -21 172 -65.5t53 -131.5t-62.5 -143.5t-176.5 -56.5q-54 0 -107 15t-86 36l47 108
q22 -12 65 -24t79 -12q47 0 73.5 20t26.5 57q0 18 -5.5 31.5t-21 23.5t-30.5 16t-47 11.5t-57 8.5t-73 8l35 170q-230 23 -357.5 164t-127.5 364z" />
    <glyph glyph-name="egrave" unicode="&#xe8;" horiz-adv-x="1222" 
d="M78 512q0 243 151 387.5t412 144.5q107 0 192 -26.5t142.5 -72t95.5 -110.5t55 -138t17 -158q0 -73 -6 -119h-701q22 -101 91 -154t182 -53q176 0 338 76l55 -221q-73 -38 -191 -63t-239 -25q-292 0 -443 143t-151 389zM219 1305l129 225l361 -260l-93 -144zM434 627h371
q0 84 -41.5 134t-132.5 50q-73 0 -125.5 -44t-71.5 -140z" />
    <glyph glyph-name="eacute" unicode="&#xe9;" horiz-adv-x="1222" 
d="M78 512q0 243 151 387.5t412 144.5q107 0 192 -26.5t142.5 -72t95.5 -110.5t55 -138t17 -158q0 -73 -6 -119h-701q22 -101 91 -154t182 -53q176 0 338 76l55 -221q-73 -38 -191 -63t-239 -25q-292 0 -443 143t-151 389zM434 627h371q0 84 -41.5 134t-132.5 50
q-73 0 -125.5 -44t-71.5 -140zM532 1270l361 260l129 -225l-397 -179z" />
    <glyph glyph-name="ecircumflex" unicode="&#xea;" horiz-adv-x="1222" 
d="M78 512q0 243 151 387.5t412 144.5q107 0 192 -26.5t142.5 -72t95.5 -110.5t55 -138t17 -158q0 -73 -6 -119h-701q22 -101 91 -154t182 -53q176 0 338 76l55 -221q-73 -38 -191 -63t-239 -25q-292 0 -443 143t-151 389zM272 1270l351 260l348 -260l-90 -144l-258 160
l-261 -160zM434 627h371q0 84 -41.5 134t-132.5 50q-73 0 -125.5 -44t-71.5 -140z" />
    <glyph glyph-name="edieresis" unicode="&#xeb;" horiz-adv-x="1222" 
d="M78 512q0 243 151 387.5t412 144.5q107 0 192 -26.5t142.5 -72t95.5 -110.5t55 -138t17 -158q0 -73 -6 -119h-701q22 -101 91 -154t182 -53q176 0 338 76l55 -221q-73 -38 -191 -63t-239 -25q-292 0 -443 143t-151 389zM168 1360l215 201l207 -201l-207 -203zM434 627
h371q0 84 -41.5 134t-132.5 50q-73 0 -125.5 -44t-71.5 -140zM645 1360l215 201l207 -201l-207 -203z" />
    <glyph glyph-name="igrave" unicode="&#xec;" horiz-adv-x="583" 
d="M-111 1305l129 225l361 -260l-92 -144zM123 0v1024h338v-1024h-338z" />
    <glyph glyph-name="iacute" unicode="&#xed;" horiz-adv-x="583" 
d="M123 0v1024h338v-1024h-338zM205 1270l360 260l129 -225l-397 -179z" />
    <glyph glyph-name="icircumflex" unicode="&#xee;" horiz-adv-x="583" 
d="M-57 1270l350 260l348 -260l-90 -144l-258 160l-260 -160zM123 0v1024h338v-1024h-338z" />
    <glyph glyph-name="idieresis" unicode="&#xef;" horiz-adv-x="583" 
d="M-162 1360l215 201l207 -201l-207 -203zM123 0v1024h338v-1024h-338zM315 1360l215 201l207 -201l-207 -203z" />
    <glyph glyph-name="eth" unicode="&#xf0;" horiz-adv-x="1349" 
d="M78 463q0 188 121.5 310t326.5 122q111 0 216.5 -49t172.5 -137q0 302 -145 434l-102 -162l-183 102l84 134h-2q-96 0 -163.5 -17t-149.5 -57l-92 233q108 48 211 70t231 22q43 0 121 -8l94 148l180 -103l-69 -108q170 -89 251 -271t81 -419q0 -123 -22 -230.5
t-71 -199.5t-121 -157.5t-176.5 -102.5t-234.5 -37q-267 0 -413 133t-146 350zM442 451q0 -96 60 -158t149 -62q114 0 175.5 75t74.5 208q-38 64 -107.5 106t-146.5 42q-86 0 -145.5 -60t-59.5 -151z" />
    <glyph glyph-name="ntilde" unicode="&#xf1;" horiz-adv-x="1230" 
d="M123 0v1024h303l33 -143q106 163 305 163q173 0 263.5 -96.5t90.5 -288.5v-659h-338v651q0 68 -39.5 106t-115.5 38q-88 0 -164 -72v-723h-338zM309 1137q0 86 15.5 144.5t44 86.5t58.5 38.5t69 10.5q43 0 130.5 -38t116.5 -38q28 0 47 20.5t19 55.5h168
q0 -86 -15.5 -144.5t-44.5 -86.5t-58.5 -38.5t-67.5 -10.5q-55 0 -138 37.5t-110 37.5q-28 0 -48 -20t-20 -55h-166z" />
    <glyph glyph-name="ograve" unicode="&#xf2;" horiz-adv-x="1306" 
d="M78 512q0 108 36.5 203t106.5 169t181.5 117t250.5 43t250 -43t181.5 -117t107.5 -169t37 -203t-37 -203.5t-107.5 -169t-181.5 -116.5t-250 -43t-250.5 43t-181.5 116.5t-106.5 169t-36.5 203.5zM252 1305l129 225l360 -260l-92 -144zM424 512q0 -56 12.5 -104.5
t38.5 -89t71.5 -64t106.5 -23.5q80 0 133.5 41.5t75 102.5t21.5 137q0 75 -21.5 136.5t-75 104t-133.5 42.5t-133.5 -42.5t-74.5 -104t-21 -136.5z" />
    <glyph glyph-name="oacute" unicode="&#xf3;" horiz-adv-x="1306" 
d="M78 512q0 108 36.5 203t106.5 169t181.5 117t250.5 43t250 -43t181.5 -117t107.5 -169t37 -203t-37 -203.5t-107.5 -169t-181.5 -116.5t-250 -43t-250.5 43t-181.5 116.5t-106.5 169t-36.5 203.5zM424 512q0 -56 12.5 -104.5t38.5 -89t71.5 -64t106.5 -23.5
q80 0 133.5 41.5t75 102.5t21.5 137q0 75 -21.5 136.5t-75 104t-133.5 42.5t-133.5 -42.5t-74.5 -104t-21 -136.5zM565 1270l361 260l129 -225l-398 -179z" />
    <glyph glyph-name="ocircumflex" unicode="&#xf4;" horiz-adv-x="1306" 
d="M78 512q0 108 36.5 203t106.5 169t181.5 117t250.5 43t250 -43t181.5 -117t107.5 -169t37 -203t-37 -203.5t-107.5 -169t-181.5 -116.5t-250 -43t-250.5 43t-181.5 116.5t-106.5 169t-36.5 203.5zM305 1270l350 260l349 -260l-91 -144l-258 160l-260 -160zM424 512
q0 -56 12.5 -104.5t38.5 -89t71.5 -64t106.5 -23.5q80 0 133.5 41.5t75 102.5t21.5 137q0 75 -21.5 136.5t-75 104t-133.5 42.5t-133.5 -42.5t-74.5 -104t-21 -136.5z" />
    <glyph glyph-name="otilde" unicode="&#xf5;" horiz-adv-x="1306" 
d="M78 512q0 108 36.5 203t106.5 169t181.5 117t250.5 43t250 -43t181.5 -117t107.5 -169t37 -203t-37 -203.5t-107.5 -169t-181.5 -116.5t-250 -43t-250.5 43t-181.5 116.5t-106.5 169t-36.5 203.5zM322 1137q0 86 15.5 144.5t44 86.5t58 38.5t68.5 10.5q43 0 131 -38
t117 -38q28 0 46.5 20.5t18.5 55.5h168q0 -86 -15.5 -144.5t-44.5 -86.5t-58.5 -38.5t-67.5 -10.5q-55 0 -138 37.5t-110 37.5q-28 0 -48 -20t-20 -55h-165zM424 512q0 -56 12.5 -104.5t38.5 -89t71.5 -64t106.5 -23.5q80 0 133.5 41.5t75 102.5t21.5 137q0 75 -21.5 136.5
t-75 104t-133.5 42.5t-133.5 -42.5t-74.5 -104t-21 -136.5z" />
    <glyph glyph-name="odieresis" unicode="&#xf6;" horiz-adv-x="1306" 
d="M78 512q0 108 36.5 203t106.5 169t181.5 117t250.5 43t250 -43t181.5 -117t107.5 -169t37 -203t-37 -203.5t-107.5 -169t-181.5 -116.5t-250 -43t-250.5 43t-181.5 116.5t-106.5 169t-36.5 203.5zM201 1360l215 201l207 -201l-207 -203zM424 512q0 -56 12.5 -104.5
t38.5 -89t71.5 -64t106.5 -23.5q80 0 133.5 41.5t75 102.5t21.5 137q0 75 -21.5 136.5t-75 104t-133.5 42.5t-133.5 -42.5t-74.5 -104t-21 -136.5zM678 1360l215 201l207 -201l-207 -203z" />
    <glyph glyph-name="divide" unicode="&#xf7;" horiz-adv-x="1118" 
d="M92 526v252h934v-252h-934zM430 137v254h270v-254h-270zM430 918v251h270v-251h-270z" />
    <glyph glyph-name="oslash" unicode="&#xf8;" horiz-adv-x="1306" 
d="M78 512q0 108 36.5 203t106.5 169t181.5 117t250.5 43q121 0 213 -30l70 112h184l-110 -180q107 -72 163 -186.5t56 -247.5q0 -108 -37 -203.5t-107.5 -169t-181.5 -116.5t-250 -43q-121 0 -215 30l-67 -112h-185l109 180q-105 72 -161 186.5t-56 247.5zM424 512
q0 -100 35 -166l268 438q-42 11 -74 11q-80 0 -133.5 -42.5t-74.5 -104t-21 -136.5zM580 242q32 -11 73 -11q80 0 133.5 41.5t75 102.5t21.5 137q0 97 -35 166z" />
    <glyph glyph-name="ugrave" unicode="&#xf9;" horiz-adv-x="1230" 
d="M113 365v643l338 36v-669q0 -70 39.5 -107t115.5 -37q90 0 164 70v723h338v-1024h-303l-33 143q-108 -163 -305 -163q-173 0 -263.5 96.5t-90.5 288.5zM213 1305l129 225l360 -260l-92 -144z" />
    <glyph glyph-name="uacute" unicode="&#xfa;" horiz-adv-x="1230" 
d="M113 365v643l338 36v-669q0 -70 39.5 -107t115.5 -37q90 0 164 70v723h338v-1024h-303l-33 143q-108 -163 -305 -163q-173 0 -263.5 96.5t-90.5 288.5zM528 1270l361 260l129 -225l-397 -179z" />
    <glyph glyph-name="ucircumflex" unicode="&#xfb;" horiz-adv-x="1230" 
d="M113 365v643l338 36v-669q0 -70 39.5 -107t115.5 -37q90 0 164 70v723h338v-1024h-303l-33 143q-108 -163 -305 -163q-173 0 -263.5 96.5t-90.5 288.5zM266 1270l350 260l349 -260l-91 -144l-258 160l-260 -160z" />
    <glyph glyph-name="udieresis" unicode="&#xfc;" horiz-adv-x="1230" 
d="M113 365v643l338 36v-669q0 -70 39.5 -107t115.5 -37q90 0 164 70v723h338v-1024h-303l-33 143q-108 -163 -305 -163q-173 0 -263.5 96.5t-90.5 288.5zM162 1360l215 201l207 -201l-207 -203zM639 1360l215 201l207 -201l-207 -203z" />
    <glyph glyph-name="yacute" unicode="&#xfd;" 
d="M29 1024h348l260 -631l240 631h348l-457 -1055q-39 -89 -72 -150.5t-78.5 -120t-96.5 -93t-121 -55.5t-156 -21q-98 0 -189 27l39 239q78 -16 139 -16q69 0 117 32.5t86 104.5l39 78zM549 1270l360 260l129 -225l-397 -179z" />
    <glyph glyph-name="thorn" unicode="&#xfe;" horiz-adv-x="1288" 
d="M123 -471v1929l338 37v-618q108 167 305 167q205 0 324.5 -143t119.5 -389q0 -245 -119.5 -388.5t-324.5 -143.5q-197 0 -305 167v-581zM461 307q83 -76 186 -76q107 0 162 76.5t55 204.5t-55 205.5t-162 77.5q-100 0 -186 -78v-410z" />
    <glyph glyph-name="ydieresis" unicode="&#xff;" 
d="M29 1024h348l260 -631l240 631h348l-457 -1055q-39 -89 -72 -150.5t-78.5 -120t-96.5 -93t-121 -55.5t-156 -21q-98 0 -189 27l39 239q78 -16 139 -16q69 0 117 32.5t86 104.5l39 78zM182 1360l215 201l207 -201l-207 -203zM659 1360l215 201l207 -201l-207 -203z" />
    <glyph glyph-name="OE" unicode="&#x152;" horiz-adv-x="2080" 
d="M72 696q0 148 44.5 273.5t130 220.5t223 149t312.5 54h1190v-287h-647v-256h567l39 -285h-606v-278h668v-287h-1211q-175 0 -312 53t-223 148t-130.5 220.5t-44.5 274.5zM434 696q0 -409 348 -409h187v819h-187q-348 0 -348 -410z" />
    <glyph glyph-name="oe" unicode="&#x153;" horiz-adv-x="2025" 
d="M78 512q0 108 36.5 203t106.5 169t181.5 117t250.5 43q251 0 398 -137q143 137 393 137q133 0 232.5 -39.5t157.5 -110.5t86 -159.5t28 -195.5q0 -26 -6 -119h-703q22 -101 91.5 -154t182.5 -53q174 0 338 76l54 -221q-73 -38 -191 -63t-239 -25q-276 0 -424 135
q-148 -135 -398 -135q-139 0 -250.5 43t-181.5 116.5t-106.5 169t-36.5 203.5zM424 512q0 -56 12.5 -104.5t38.5 -89t71.5 -64t106.5 -23.5q80 0 133.5 41.5t75 102.5t21.5 137q0 75 -21.5 136.5t-75 104t-133.5 42.5t-133.5 -42.5t-74.5 -104t-21 -136.5zM1237 627h373
q-4 184 -174 184q-162 0 -199 -184z" />
    <glyph glyph-name="Ydieresis" unicode="&#x178;" horiz-adv-x="1411" 
d="M12 1374l355 37l333 -661l326 643h373l-531 -977v-416h-354v418zM244 1729l215 200l207 -200l-207 -203zM721 1729l215 200l207 -200l-207 -203z" />
    <glyph glyph-name="circumflex" unicode="&#x2c6;" horiz-adv-x="903" 
d="M102 1270l351 260l348 -260l-90 -144l-258 160l-260 -160z" />
    <glyph glyph-name="tilde" unicode="&#x2dc;" horiz-adv-x="872" 
d="M102 1137q0 86 15.5 144.5t44 86.5t58.5 38.5t69 10.5q43 0 131 -38t117 -38q28 0 46.5 20.5t18.5 55.5h168q0 -86 -15.5 -144.5t-44.5 -86.5t-58.5 -38.5t-67.5 -10.5q-55 0 -138 37.5t-110 37.5q-28 0 -48 -20t-20 -55h-166z" />
    <glyph glyph-name="uni2000" unicode="&#x2000;" horiz-adv-x="964" 
 />
    <glyph glyph-name="uni2001" unicode="&#x2001;" horiz-adv-x="1929" 
 />
    <glyph glyph-name="uni2002" unicode="&#x2002;" horiz-adv-x="964" 
 />
    <glyph glyph-name="uni2003" unicode="&#x2003;" horiz-adv-x="1929" 
 />
    <glyph glyph-name="uni2004" unicode="&#x2004;" horiz-adv-x="643" 
 />
    <glyph glyph-name="uni2005" unicode="&#x2005;" horiz-adv-x="482" 
 />
    <glyph glyph-name="uni2006" unicode="&#x2006;" horiz-adv-x="321" 
 />
    <glyph glyph-name="uni2007" unicode="&#x2007;" horiz-adv-x="321" 
 />
    <glyph glyph-name="uni2008" unicode="&#x2008;" horiz-adv-x="241" 
 />
    <glyph glyph-name="uni2009" unicode="&#x2009;" horiz-adv-x="385" 
 />
    <glyph glyph-name="uni200A" unicode="&#x200a;" horiz-adv-x="107" 
 />
    <glyph glyph-name="uni2010" unicode="&#x2010;" horiz-adv-x="946" 
d="M109 475v252h729v-252h-729z" />
    <glyph glyph-name="uni2011" unicode="&#x2011;" horiz-adv-x="946" 
d="M109 475v252h729v-252h-729z" />
    <glyph glyph-name="figuredash" unicode="&#x2012;" horiz-adv-x="946" 
d="M109 475v252h729v-252h-729z" />
    <glyph glyph-name="endash" unicode="&#x2013;" horiz-adv-x="1355" 
d="M109 475v252h1138v-252h-1138z" />
    <glyph glyph-name="emdash" unicode="&#x2014;" horiz-adv-x="1970" 
d="M109 475v252h1753v-252h-1753z" />
    <glyph glyph-name="quoteleft" unicode="&#x2018;" horiz-adv-x="538" 
d="M86 852q21 308 182 543l183 -11q-38 -99 -66 -252t-27 -280h-272z" />
    <glyph glyph-name="quoteright" unicode="&#x2019;" horiz-adv-x="536" 
d="M88 862q37 97 64.5 250.5t27.5 282.5h271q-11 -168 -57.5 -298t-125.5 -245z" />
    <glyph glyph-name="quotesinglbase" unicode="&#x201a;" horiz-adv-x="483" 
d="M18 -256q37 97 65 250.5t28 281.5h270q-21 -310 -180 -542z" />
    <glyph glyph-name="quotedblleft" unicode="&#x201c;" horiz-adv-x="913" 
d="M86 852q21 308 182 543l183 -11q-38 -99 -66 -252t-27 -280h-272zM463 852q21 308 182 543l182 -11q-38 -98 -65.5 -251.5t-26.5 -280.5h-272z" />
    <glyph glyph-name="quotedblright" unicode="&#x201d;" horiz-adv-x="915" 
d="M88 862q37 97 64.5 250.5t27.5 282.5h271q-11 -168 -57.5 -298t-125.5 -245zM465 862q37 97 64.5 250.5t27.5 282.5h270q-21 -308 -182 -543z" />
    <glyph glyph-name="quotedblbase" unicode="&#x201e;" horiz-adv-x="860" 
d="M18 -256q37 97 65 250.5t28 281.5h270q-21 -310 -180 -542zM395 -256q37 97 64.5 250t27.5 282h271q-21 -310 -180 -542z" />
    <glyph glyph-name="bullet" unicode="&#x2022;" horiz-adv-x="702" 
d="M111 260v481h481v-481h-481z" />
    <glyph glyph-name="ellipsis" unicode="&#x2026;" horiz-adv-x="1265" 
d="M102 0v276h277v-276h-277zM496 0v276h274v-276h-274zM887 0v276h276v-276h-276z" />
    <glyph glyph-name="uni202F" unicode="&#x202f;" horiz-adv-x="385" 
 />
    <glyph glyph-name="guilsinglleft" unicode="&#x2039;" horiz-adv-x="710" 
d="M59 512l363 422h217l-342 -422l342 -422h-217z" />
    <glyph glyph-name="guilsinglright" unicode="&#x203a;" horiz-adv-x="710" 
d="M70 90l344 422l-344 422h219l360 -422l-360 -422h-219z" />
    <glyph glyph-name="uni205F" unicode="&#x205f;" horiz-adv-x="482" 
 />
    <glyph glyph-name="Euro" unicode="&#x20ac;" horiz-adv-x="1492" 
d="M68 475v150h139q-4 46 -4 71q0 26 4 72h-139v150h163q64 231 255.5 363t474.5 132q148 0 254.5 -25.5t207.5 -74.5l-53 -312q-103 66 -194.5 95.5t-198.5 29.5q-131 0 -225.5 -52.5t-141.5 -155.5h359v-150h-398q-4 -46 -4 -72q0 -25 4 -71h398v-150h-359
q45 -103 136.5 -156t214.5 -53q114 0 232.5 32t213.5 95v-313q-102 -49 -209.5 -74.5t-253.5 -25.5q-274 0 -461.5 132t-251.5 363h-163z" />
    <glyph glyph-name="trademark" unicode="&#x2122;" horiz-adv-x="2224" 
d="M102 1208v185h824l-25 -185h-272v-790h-230v790h-297zM1051 418v975h223l311 -475l313 475h224v-961l-230 -26v595l-256 -378h-129l-250 378v-583h-206z" />
    <glyph glyph-name="uni25FC" unicode="&#x25fc;" horiz-adv-x="1024" 
d="M0 0v1024h1024v-1024h-1024z" />
    </font>
</defs>
</svg>
