<?xml version="1.0" standalone="no"?>
<!DOCTYPE svg PUBLIC "-//W3C//DTD SVG 1.1//EN" "http://www.w3.org/Graphics/SVG/1.1/DTD/svg11.dtd" >
<svg xmlns="http://www.w3.org/2000/svg" xmlns:xlink="http://www.w3.org/1999/xlink" version="1.1">
<metadata>
Created by FontForge 20161116 at Wed Mar  9 13:08:27 2016
 By Jimmy Wärting
Copyright (c) 2015 by DSType Foundry. All rights reserved.
</metadata>
<defs>
<font id="ExpoSansStd-SemiBold" horiz-adv-x="1658" >
  <font-face 
    font-family="Expo Sans Std SemiBold"
    font-weight="600"
    font-stretch="normal"
    units-per-em="2048"
    panose-1="0 0 7 0 0 0 0 0 0 0"
    ascent="1536"
    descent="-512"
    x-height="1024"
    cap-height="1411"
    bbox="-133 -479 2269 1898"
    underline-thickness="102"
    underline-position="-204"
    unicode-range="U+0020-FB02"
  />
<missing-glyph horiz-adv-x="748" 
d="M68 0v1365h544v-1365h-544zM136 68h408v1229h-408v-1229z" />
    <glyph glyph-name="uniFB01" unicode="fi" horiz-adv-x="1376" 
d="M47 809v215h160v109q0 170 99.5 266t295.5 96q158 0 258 -41l-49 -201q-69 27 -160 27q-157 0 -157 -154v-102h311v-215h-311v-809h-287v809h-160zM901 1360l203 190l194 -190l-194 -191zM956 0v1024h287v-1024h-287z" />
    <glyph glyph-name="uniFB02" unicode="fl" horiz-adv-x="1376" 
d="M47 809v215h160v109q0 170 99.5 266t295.5 96q158 0 258 -41l-49 -201q-69 27 -160 27q-157 0 -157 -154v-102h311v-215h-311v-809h-287v809h-160zM956 0v1460l287 35v-1495h-287z" />
    <glyph glyph-name=".notdef" horiz-adv-x="748" 
d="M68 0v1365h544v-1365h-544zM136 68h408v1229h-408v-1229z" />
    <glyph glyph-name="glyph1" horiz-adv-x="0" 
 />
    <glyph glyph-name="glyph2" horiz-adv-x="682" 
 />
    <glyph glyph-name="space" unicode=" " horiz-adv-x="464" 
 />
    <glyph glyph-name="exclam" unicode="!" horiz-adv-x="489" 
d="M92 1393h305l-43 -983h-217zM123 0v244h244v-244h-244z" />
    <glyph glyph-name="quotedbl" unicode="&#x22;" horiz-adv-x="808" 
d="M111 1393h231l-45 -506h-141zM467 1393h233l-45 -506h-143z" />
    <glyph glyph-name="numbersign" unicode="#" horiz-adv-x="1630" 
d="M82 0l162 326h-148v217h246l115 235h-252v217h352l193 398h235l-194 -398h329l193 398h235l-192 -398h178v-217h-279l-114 -235h311v-217h-410l-161 -326h-236l162 326h-328l-162 -326h-235zM575 543h330l115 235h-330z" />
    <glyph glyph-name="dollar" unicode="$" horiz-adv-x="1234" 
d="M88 88v266q143 -87 340 -118l76 358q-70 24 -119 45t-107 57.5t-93.5 77.5t-60 103.5t-24.5 138.5q0 83 27 150.5t73.5 112.5t111 76t137 44.5t153.5 13.5q47 0 72 -2l49 238h182l-53 -260q112 -22 262 -84l-33 -265q-147 81 -278 109l-68 -320q71 -23 120.5 -43.5
t109 -57t96 -77.5t61.5 -104t25 -139q0 -114 -45.5 -199t-123.5 -133.5t-171 -72t-199 -23.5h-49l-49 -236h-184l53 252q-148 25 -291 92zM406 1030q0 -49 40 -82.5t117 -62.5l60 284q-50 -2 -85 -8t-67 -20.5t-48.5 -42t-16.5 -68.5zM610 225q230 12 230 154
q0 54 -42.5 90.5t-123.5 67.5z" />
    <glyph glyph-name="percent" unicode="%" horiz-adv-x="1697" 
d="M76 1063q0 161 83.5 255.5t246.5 94.5t246 -94.5t83 -255.5t-82.5 -254.5t-246.5 -93.5t-247 93.5t-83 254.5zM279 0l895 1393h233l-893 -1393h-235zM293 1063q0 -73 27 -109t86 -36t85.5 36t26.5 109q0 75 -26.5 112t-85.5 37t-86 -37t-27 -112zM963 334
q0 161 82.5 254.5t246.5 93.5t248 -93.5t84 -254.5q0 -162 -84 -256t-248 -94t-246.5 93.5t-82.5 256.5zM1182 334q0 -75 26.5 -111.5t85.5 -36.5q60 0 86.5 36.5t26.5 111.5q0 147 -113 147q-59 0 -85.5 -36.5t-26.5 -110.5z" />
    <glyph glyph-name="ampersand" unicode="&#x26;" horiz-adv-x="1501" 
d="M82 344q0 72 25.5 133t70.5 105t93.5 74t105.5 53q-82 76 -126 157t-44 183q0 93 40 165.5t106.5 114.5t145 63t163.5 21q108 0 193.5 -28.5t137 -77t78.5 -108t27 -124.5q0 -117 -80 -214t-236 -154l295 -224q79 110 150 246l198 -98q-90 -180 -168 -285l218 -166
l-142 -194l-239 178q-212 -184 -512 -184q-229 0 -364.5 96.5t-135.5 267.5zM377 377q0 -85 64.5 -133.5t179.5 -48.5q150 0 288 108l-387 289q-65 -37 -105 -87.5t-40 -127.5zM494 1042q0 -58 32 -107t97 -104q202 78 202 213q0 65 -47.5 109.5t-124.5 44.5q-65 0 -112 -41
t-47 -115z" />
    <glyph glyph-name="quotesingle" unicode="'" horiz-adv-x="452" 
d="M111 1393h231l-45 -506h-141z" />
    <glyph glyph-name="parenleft" unicode="(" horiz-adv-x="661" 
d="M82 696q0 171 39 338.5t100 295t123.5 220.5t122.5 150h182q-54 -69 -108.5 -172.5t-105 -234t-82 -289t-31.5 -308.5q0 -197 55.5 -406.5t126.5 -355t145 -241.5h-182q-60 57 -122.5 150t-123.5 220t-100 294.5t-39 338.5z" />
    <glyph glyph-name="parenright" unicode=")" horiz-adv-x="661" 
d="M14 -307q54 70 108 173t105 233.5t83 288.5t32 308t-32 308t-83 289t-105.5 234t-107.5 173h183q59 -57 121 -150t123 -220.5t100 -295t39 -338.5q0 -138 -26.5 -276t-67 -246.5t-93 -206t-101.5 -163.5t-95 -111h-183z" />
    <glyph glyph-name="asterisk" unicode="*" horiz-adv-x="780" 
d="M90 991l164 94l-164 97l66 116l168 -96v191h133v-191l166 96l65 -116l-164 -97l164 -94l-65 -117l-166 95v-191h-133v191l-168 -95z" />
    <glyph glyph-name="plus" unicode="+" horiz-adv-x="1165" 
d="M80 553v217h393v393h217v-393h395v-217h-393v-395h-217v395h-395z" />
    <glyph glyph-name="comma" unicode="," horiz-adv-x="446" 
d="M16 -256q37 97 64.5 237.5t28.5 262.5h235q-11 -155 -53.5 -274.5t-116.5 -235.5z" />
    <glyph glyph-name="hyphen" unicode="-" horiz-adv-x="950" 
d="M117 492v217h717v-217h-717z" />
    <glyph glyph-name="period" unicode="." horiz-adv-x="454" 
d="M104 0v244h246v-244h-246z" />
    <glyph glyph-name="slash" unicode="/" horiz-adv-x="1005" 
d="M0 0l815 1393h191l-816 -1393h-190z" />
    <glyph glyph-name="zero" unicode="0" horiz-adv-x="1447" 
d="M96 696q0 150 38.5 278t113.5 227t197 155.5t278 56.5t278 -56.5t197.5 -155.5t114.5 -227t39 -278q0 -151 -39 -279t-114.5 -226.5t-197.5 -154.5t-278 -56q-125 0 -229 36.5t-177 101.5t-123 155.5t-74 196.5t-24 226zM401 696q0 -112 18 -199t56 -152t100.5 -99.5
t147.5 -34.5q166 0 243.5 127.5t77.5 357.5t-77.5 358t-243.5 128t-244 -128.5t-78 -357.5z" />
    <glyph glyph-name="one" unicode="1" horiz-adv-x="1024" 
d="M61 1214l369 189h260v-1159h266l33 -244h-901v244h301v870l-248 -127z" />
    <glyph glyph-name="two" unicode="2" horiz-adv-x="1243" 
d="M92 0v145q0 106 40 193.5t104 147t142 110t155.5 92.5t141.5 84t104 96t40 117q0 103 -71 150t-185 47q-96 0 -191 -36.5t-208 -103.5l-37 236q247 135 471 135q87 0 164 -15t144 -47.5t115.5 -80t76.5 -117t28 -154.5q0 -89 -38.5 -166.5t-100.5 -134t-136.5 -107
t-149 -92.5t-136.5 -81t-100.5 -83.5t-38.5 -90.5h690l33 -244h-1057z" />
    <glyph glyph-name="three" unicode="3" horiz-adv-x="1202" 
d="M41 90l78 211q123 -48 216.5 -70t186.5 -22q293 0 293 203q0 196 -315 196h-123v215h123q153 1 224 47.5t71 139.5q0 182 -248 182q-92 0 -170.5 -20.5t-206.5 -73.5l-78 211q235 112 500 112q225 0 354 -99t129 -284q0 -120 -66.5 -200.5t-185.5 -120.5
q293 -81 293 -336q0 -191 -143 -296t-404 -105q-316 0 -528 110z" />
    <glyph glyph-name="four" unicode="4" horiz-adv-x="1337" 
d="M68 266v228l716 899h306v-899h194v-228h-194v-266h-299v266h-723zM371 494h420v542z" />
    <glyph glyph-name="five" unicode="5" horiz-adv-x="1228" 
d="M68 90q212 -110 522 -110q262 0 410.5 124.5t148.5 346.5q0 200 -131.5 313t-355.5 113q-111 0 -236 -25l16 299h596l35 242h-878l-39 -779q229 50 379 50q153 0 231 -57.5t78 -162.5q0 -113 -77.5 -174t-223.5 -61q-93 0 -183.5 21.5t-214.5 70.5z" />
    <glyph glyph-name="six" unicode="6" horiz-adv-x="1351" 
d="M96 670q0 110 22.5 214t73 201t124.5 169t185.5 115.5t246.5 43.5q124 0 222 -21.5t201 -68.5l-81 -213q-79 40 -148 58t-162 18q-377 0 -377 -490q72 95 183.5 143t222.5 48q206 0 327 -119t121 -303q0 -101 -35 -188t-101.5 -154t-171.5 -105t-236 -38q-153 0 -272 52
t-194 146t-113 218.5t-38 273.5zM416 520q6 -82 37 -150t95.5 -114.5t153.5 -46.5q106 0 176 69t70 177q0 104 -67.5 167.5t-171.5 63.5q-91 0 -171.5 -47.5t-121.5 -118.5z" />
    <glyph glyph-name="seven" unicode="7" horiz-adv-x="1126" 
d="M55 1151l33 242h997v-211l-579 -1182h-293l565 1151h-723z" />
    <glyph glyph-name="eight" unicode="8" horiz-adv-x="1329" 
d="M86 356q0 104 67 195t185 145q-180 109 -180 328q0 124 69 213.5t183.5 132.5t261.5 43q136 0 247.5 -41t181.5 -128t70 -206q0 -197 -196 -309q125 -52 196.5 -133t71.5 -213q0 -127 -78 -219.5t-208.5 -138t-297.5 -45.5q-119 0 -220.5 22t-181.5 66t-125.5 117.5
t-45.5 170.5zM393 393q0 -89 71 -143.5t198 -54.5q120 0 197 52t77 142q0 28 -10.5 51.5t-34 41.5t-47 31.5t-64.5 27t-71 22.5t-82 22.5t-82 22.5q-152 -88 -152 -215zM430 1028q0 -33 10.5 -60.5t41 -50.5t50.5 -37t74.5 -33t76 -25.5t89.5 -25.5q7 -2 10 -3
q60 52 87.5 106t27.5 125q0 76 -59.5 125t-171.5 49q-111 0 -173.5 -47t-62.5 -123z" />
    <glyph glyph-name="nine" unicode="9" horiz-adv-x="1351" 
d="M96 928q0 102 35 189t101.5 153.5t171 104.5t235.5 38q154 0 273 -52t194 -145.5t113 -218t38 -274.5q0 -110 -22.5 -214t-73 -201t-124.5 -169t-185.5 -115.5t-247.5 -43.5q-231 0 -422 92l80 213q77 -40 146.5 -58t162.5 -18q377 0 377 487q-71 -94 -182 -142t-223 -48
q-206 0 -326.5 118.5t-120.5 303.5zM401 940q0 -106 68 -169.5t174 -63.5q90 0 171 47t122 118q-5 61 -25 115.5t-54 99.5t-88 72t-120 27q-106 0 -177 -69.5t-71 -176.5z" />
    <glyph glyph-name="colon" unicode=":" horiz-adv-x="464" 
d="M104 164v244h246v-244h-246zM104 649v244h246v-244h-246z" />
    <glyph glyph-name="semicolon" unicode=";" horiz-adv-x="468" 
d="M16 -256q37 97 64.5 237.5t28.5 262.5h235q-11 -155 -53.5 -274.5t-116.5 -235.5zM104 649v244h246v-244h-246z" />
    <glyph glyph-name="less" unicode="&#x3c;" horiz-adv-x="1153" 
d="M115 508v307l923 221v-217l-682 -160l682 -157v-217z" />
    <glyph glyph-name="equal" unicode="=" horiz-adv-x="1177" 
d="M127 326v217h922v-217h-922zM127 778v217h922v-217h-922z" />
    <glyph glyph-name="greater" unicode="&#x3e;" horiz-adv-x="1153" 
d="M115 285v217l682 157l-682 160v217l923 -221v-307z" />
    <glyph glyph-name="question" unicode="?" horiz-adv-x="1173" 
d="M68 1305q137 56 253 82t261 26q81 0 153 -13.5t137 -44.5t111.5 -76t74 -112.5t27.5 -150.5q0 -88 -27.5 -155.5t-71 -108t-97 -72.5t-106.5 -57.5t-96.5 -52.5t-71 -67.5t-27.5 -94.5h-230q0 73 14.5 133t38.5 101t55.5 74t66 56.5t69 43.5t66 40t55.5 41.5t38.5 52
t14.5 68.5q0 44 -18 75t-52.5 47t-73.5 22.5t-91 6.5q-204 0 -437 -129zM350 0v244h246v-244h-246z" />
    <glyph glyph-name="at" unicode="@" horiz-adv-x="1980" 
d="M109 524q0 209 65.5 387t186.5 307.5t302.5 203t403.5 73.5q187 0 334.5 -47.5t240.5 -131t141 -192.5t48 -237v-887h-260l-27 150q-122 -170 -325 -170q-211 0 -334 143.5t-123 388.5t123 388.5t334 143.5q206 0 325 -170q0 196 -130 301t-347 105q-155 0 -282 -47.5
t-220.5 -139.5t-144.5 -237t-51 -332q0 -178 53.5 -323.5t149.5 -244.5t231 -152.5t297 -53.5v-221q-184 0 -344 52t-277.5 144t-201.5 216.5t-126 273t-42 309.5zM1055 512q0 -143 67 -230t193 -87q133 0 227 104v428q-95 102 -227 102q-126 0 -193 -87t-67 -230z" />
    <glyph glyph-name="A" unicode="A" horiz-adv-x="1468" 
d="M10 0l553 1386l355 35l538 -1403l-299 -36l-113 299h-620l-105 -281h-309zM516 524h438l-217 586z" />
    <glyph glyph-name="B" unicode="B" horiz-adv-x="1406" 
d="M156 0v1393h598q528 0 528 -379q0 -100 -49.5 -178t-153.5 -113q123 -28 183.5 -117t60.5 -207q0 -208 -129 -303.5t-391 -95.5h-647zM457 244h338q113 0 168 42.5t55 131.5q0 90 -55 133t-168 43h-338v-350zM457 825h291q117 0 173 36t56 124q0 87 -56.5 125.5
t-172.5 38.5h-291v-324z" />
    <glyph glyph-name="C" unicode="C" horiz-adv-x="1376" 
d="M82 696q0 327 203.5 522t543.5 195q147 0 256.5 -27.5t208.5 -80.5l-47 -263q-105 67 -201.5 97t-205.5 30q-206 0 -328.5 -124t-122.5 -349q0 -224 120 -348.5t318 -124.5q116 0 235.5 32.5t217.5 98.5v-266q-103 -53 -211.5 -80.5t-253.5 -27.5q-217 0 -383.5 87.5
t-258 250.5t-91.5 378z" />
    <glyph glyph-name="D" unicode="D" horiz-adv-x="1542" 
d="M156 0v1393h528q174 0 317 -53.5t237 -147.5t145 -221t51 -275q0 -118 -32 -224t-95.5 -192t-153 -148.5t-209.5 -97t-260 -34.5h-528zM457 244h227q208 0 325 121.5t117 330.5t-117 331t-325 122h-227v-905z" />
    <glyph glyph-name="E" unicode="E" horiz-adv-x="1263" 
d="M156 0v1393h991v-244h-690v-318h614l35 -243h-649v-344h710v-244h-1011z" />
    <glyph glyph-name="F" unicode="F" horiz-adv-x="1228" 
d="M156 0v1393h997v-244h-696v-385h622l33 -244h-655v-520h-301z" />
    <glyph glyph-name="G" unicode="G" horiz-adv-x="1406" 
d="M82 696q0 328 194 522.5t523 194.5q145 0 254.5 -27.5t210.5 -80.5l-35 -263q-104 67 -200.5 97t-205.5 30q-198 0 -316 -124t-118 -349t118 -349t316 -124q98 0 181 29v414l286 34v-624q-200 -96 -491 -96q-329 0 -523 194t-194 522z" />
    <glyph glyph-name="H" unicode="H" horiz-adv-x="1556" 
d="M156 0v1376l301 35v-580h641v545l301 35v-1411h-301v588h-641v-588h-301z" />
    <glyph glyph-name="I" unicode="I" horiz-adv-x="614" 
d="M156 0v1376l301 35v-1411h-301z" />
    <glyph glyph-name="J" unicode="J" horiz-adv-x="1021" 
d="M20 16l35 244q113 -37 271 -37q115 0 183.5 58.5t68.5 177.5v690h-371v244h672v-940q0 -228 -132.5 -350.5t-392.5 -122.5q-168 0 -334 36z" />
    <glyph glyph-name="K" unicode="K" horiz-adv-x="1406" 
d="M156 0v1393h301v-562h239l353 562h333l-432 -672l449 -707l-324 -34l-383 606h-235v-586h-301z" />
    <glyph glyph-name="L" unicode="L" horiz-adv-x="1216" 
d="M156 0v1376l301 35v-1167h690l33 -244h-1024z" />
    <glyph glyph-name="M" unicode="M" horiz-adv-x="1828" 
d="M156 0v1393h295l464 -707l463 707h293v-1375l-299 -36v899l-391 -580h-170l-383 580v-881h-272z" />
    <glyph glyph-name="N" unicode="N" horiz-adv-x="1570" 
d="M156 0v1393h295l690 -928v911l272 35v-1411h-293l-692 942v-942h-272z" />
    <glyph glyph-name="O" unicode="O" 
d="M82 696q0 148 50 278t142.5 228t235.5 154.5t319 56.5t319 -56.5t236 -154.5t143 -228t50 -278q0 -149 -50 -278.5t-143 -227.5t-236 -154t-319 -56t-319 56t-235.5 154t-142.5 227.5t-50 278.5zM389 696q0 -213 115.5 -343t324.5 -130t325 130.5t116 342.5t-116 342.5
t-325 130.5t-324.5 -130t-115.5 -343z" />
    <glyph glyph-name="P" unicode="P" horiz-adv-x="1366" 
d="M156 0v1393h610q260 0 405.5 -127t145.5 -340q0 -214 -145.5 -341.5t-405.5 -127.5h-309v-457h-301zM457 700h295q118 0 188 60.5t70 165.5q0 104 -70 163.5t-188 59.5h-295v-449z" />
    <glyph glyph-name="Q" unicode="Q" 
d="M82 696q0 148 50 278t142.5 228t235.5 154.5t319 56.5t319 -56.5t236 -154.5t143 -228t50 -278q0 -162 -57.5 -300.5t-167.5 -237.5l147 -183l-207 -157l-168 209q-130 -47 -295 -47q-176 0 -319 56t-235.5 154t-142.5 227.5t-50 278.5zM389 696q0 -213 115.5 -343
t324.5 -130q67 0 140 17l-154 227l152 117l200 -215q103 127 103 327q0 213 -116 344t-325 131t-324.5 -131t-115.5 -344z" />
    <glyph glyph-name="R" unicode="R" horiz-adv-x="1402" 
d="M156 0v1393h616q259 0 390.5 -111.5t131.5 -331.5q0 -152 -78.5 -255.5t-218.5 -145.5l365 -535l-311 -34l-353 524h-241v-504h-301zM457 748h286q242 0 242 202q0 199 -242 199h-286v-401z" />
    <glyph glyph-name="S" unicode="S" horiz-adv-x="1234" 
d="M88 88v266q102 -63 234 -97t245 -34q54 0 99.5 7.5t86 24t64 48.5t23.5 76q0 40 -25.5 71.5t-68 53.5t-98 41.5t-117 40t-123 44t-117 58t-98 77.5t-68 107.5t-25.5 143.5q0 83 27 150.5t73.5 112.5t111 76t137 44.5t153.5 13.5q145 0 261 -26t251 -82l-33 -265
q-236 129 -438 129q-53 0 -91.5 -5.5t-73.5 -19.5t-53.5 -42.5t-18.5 -71.5q0 -37 25.5 -67t68 -50.5t98.5 -39t117 -38.5t122.5 -43t117.5 -57t98.5 -77t68 -107t25.5 -143q0 -114 -45.5 -199t-123.5 -133.5t-171 -72t-199 -23.5q-291 0 -520 108z" />
    <glyph glyph-name="T" unicode="T" horiz-adv-x="1228" 
d="M27 1149v244h1175l-35 -244h-403v-1149h-299v1149h-438z" />
    <glyph glyph-name="U" unicode="U" horiz-adv-x="1529" 
d="M143 506v870l301 35v-844q0 -171 76 -257.5t246 -86.5t244.5 86t74.5 258v809l301 35v-905q0 -85 -23 -162t-72 -144t-120.5 -115.5t-175 -76.5t-229.5 -28q-128 0 -232.5 28.5t-176 78t-120.5 117t-71.5 143.5t-22.5 159z" />
    <glyph glyph-name="V" unicode="V" horiz-adv-x="1480" 
d="M23 1376l301 35l415 -1128l412 1110h305l-549 -1403h-352z" />
    <glyph glyph-name="W" unicode="W" horiz-adv-x="2103" 
d="M33 1376l286 35l310 -1077l282 1059h277l297 -1059l295 1059h288l-409 -1403h-344l-273 923l-262 -923h-329z" />
    <glyph glyph-name="X" unicode="X" horiz-adv-x="1392" 
d="M6 0l504 723l-465 653l328 35l329 -475l304 457h325l-454 -668l509 -707l-329 -36l-381 524l-342 -506h-328z" />
    <glyph glyph-name="Y" unicode="Y" horiz-adv-x="1390" 
d="M23 1376l301 35l366 -692l359 674h317l-532 -959v-434h-302v438z" />
    <glyph glyph-name="Z" unicode="Z" horiz-adv-x="1247" 
d="M72 0v197l700 952h-661v244h1042v-197l-700 -952h686l37 -244h-1104z" />
    <glyph glyph-name="bracketleft" unicode="[" horiz-adv-x="681" 
d="M150 -307v2007h505v-191h-260v-1626h267v-190h-512z" />
    <glyph glyph-name="backslash" unicode="\" horiz-adv-x="1005" 
d="M0 1393h190l816 -1393h-191z" />
    <glyph glyph-name="bracketright" unicode="]" horiz-adv-x="681" 
d="M20 -117h267v1626h-260v191h505v-2007h-512v190z" />
    <glyph glyph-name="asciicircum" unicode="^" horiz-adv-x="858" 
d="M98 598l332 256l328 -256l-78 -121l-250 160l-252 -160z" />
    <glyph glyph-name="underscore" unicode="_" horiz-adv-x="1155" 
d="M117 -131h921v-217h-921v217z" />
    <glyph glyph-name="grave" unicode="`" horiz-adv-x="616" 
d="M68 1311l118 194l328 -258l-82 -121z" />
    <glyph glyph-name="a" unicode="a" horiz-adv-x="1212" 
d="M82 276q0 117 64 195.5t173.5 114t260.5 35.5q62 0 198 -13v68q0 69 -55 111t-176 42q-186 0 -367 -79l-49 208q196 86 455 86q236 0 357.5 -101.5t121.5 -287.5v-370q0 -47 15.5 -68.5t60.5 -21.5q38 0 61 8v-203q-72 -20 -158 -20q-112 0 -172 42t-81 125
q-131 -167 -363 -167q-159 0 -252.5 84t-93.5 212zM377 319q0 -61 44.5 -92.5t117.5 -31.5q74 0 129 24.5t110 77.5v135q-77 14 -178 14q-120 0 -171.5 -32t-51.5 -95z" />
    <glyph glyph-name="b" unicode="b" horiz-adv-x="1288" 
d="M133 0v1460l287 35v-621q114 170 325 170q209 0 333 -144t124 -388t-124 -388t-333 -144t-325 170l-27 -150h-260zM420 299q97 -104 229 -104q125 0 191.5 87t66.5 230t-66.5 230t-191.5 87q-130 0 -229 -102v-428z" />
    <glyph glyph-name="c" unicode="c" horiz-adv-x="1095" 
d="M86 512q0 244 149 388t412 144q217 0 383 -88l-47 -204q-161 77 -307 77q-131 0 -214 -81.5t-83 -235.5t83 -235.5t214 -81.5q146 0 307 77l47 -204q-166 -88 -383 -88q-263 0 -412 144t-149 388z" />
    <glyph glyph-name="d" unicode="d" horiz-adv-x="1288" 
d="M86 512q0 245 123 388.5t334 143.5q206 0 325 -170v586l287 35v-1495h-260l-27 150q-122 -170 -325 -170q-211 0 -334 143.5t-123 388.5zM379 512q0 -143 67 -230t193 -87q133 0 227 104v428q-95 102 -227 102q-126 0 -193 -87t-67 -230z" />
    <glyph glyph-name="e" unicode="e" horiz-adv-x="1214" 
d="M86 512q0 242 148.5 387t400.5 145q107 0 192 -27t141 -73.5t93 -112t53 -137.5t16 -155q0 -22 -6 -109h-737q20 -120 99 -184t210 -64q183 0 342 76l47 -190q-74 -39 -187 -63.5t-230 -24.5q-285 0 -433.5 142t-148.5 390zM387 616h457q-4 228 -215 228
q-94 0 -158.5 -56.5t-83.5 -171.5z" />
    <glyph glyph-name="f" unicode="f" horiz-adv-x="825" 
d="M47 809v215h160v109q0 170 99.5 266t295.5 96q158 0 258 -41l-49 -201q-69 27 -160 27q-157 0 -157 -154v-102h311v-215h-311v-809h-287v809h-160z" />
    <glyph glyph-name="g" unicode="g" horiz-adv-x="1288" 
d="M86 532q0 234 124.5 373t332.5 139q206 0 325 -170l27 150h260v-981q0 -245 -153.5 -379.5t-442.5 -134.5q-120 0 -243 25t-195 63l47 205q82 -39 187 -58.5t190 -19.5q155 0 239 66t84 219v161q-122 -170 -325 -170q-207 0 -332 139.5t-125 372.5zM379 532
q0 -132 68 -214t192 -82q133 0 227 104v387q-95 102 -227 102q-124 0 -192 -82.5t-68 -214.5z" />
    <glyph glyph-name="h" unicode="h" horiz-adv-x="1222" 
d="M133 0v1460l287 35v-616q113 165 321 165q175 0 267 -96.5t92 -285.5v-662h-287v655q0 85 -47.5 129.5t-138.5 44.5q-118 0 -207 -96v-733h-287z" />
    <glyph glyph-name="i" unicode="i" horiz-adv-x="552" 
d="M78 1360l203 190l194 -190l-194 -191zM133 0v1024h287v-1024h-287z" />
    <glyph glyph-name="j" unicode="j" horiz-adv-x="552" 
d="M-117 -451l35 207q46 -12 100 -12q115 0 115 123v1157h287v-1149q0 -174 -90 -260t-252 -86q-120 0 -195 20zM78 1360l203 190l194 -190l-194 -191z" />
    <glyph glyph-name="k" unicode="k" horiz-adv-x="1183" 
d="M133 0v1460l287 35v-864h121l303 393h307l-360 -479l401 -545h-322l-313 418h-137v-418h-287z" />
    <glyph glyph-name="l" unicode="l" horiz-adv-x="552" 
d="M133 0v1460l287 35v-1495h-287z" />
    <glyph glyph-name="m" unicode="m" horiz-adv-x="1894" 
d="M133 0v1024h260l25 -147q112 167 319 167q256 0 330 -202q118 202 346 202q175 0 267 -96.5t92 -285.5v-662h-287v655q0 85 -48 129.5t-139 44.5q-117 0 -206 -96q4 -46 4 -71v-662h-287v655q0 85 -47.5 129.5t-138.5 44.5q-114 0 -203 -96v-733h-287z" />
    <glyph glyph-name="n" unicode="n" horiz-adv-x="1222" 
d="M133 0v1024h260l25 -147q112 167 323 167q175 0 267 -96.5t92 -285.5v-662h-287v655q0 85 -47.5 129.5t-138.5 44.5q-118 0 -207 -96v-733h-287z" />
    <glyph glyph-name="o" unicode="o" horiz-adv-x="1304" 
d="M86 512q0 109 37 204.5t106 169t178.5 116t245.5 42.5q135 0 243.5 -42.5t178.5 -116t107 -169t37 -204.5t-37 -204.5t-107 -169t-178.5 -116t-243.5 -42.5q-136 0 -245.5 42.5t-178.5 116t-106 169t-37 204.5zM379 512q0 -63 15.5 -118t47 -100.5t85.5 -72t124 -26.5
t124 26.5t85.5 71.5t47.5 100.5t16 118.5t-16 118.5t-47.5 100.5t-85.5 71.5t-124 26.5t-124 -26.5t-85.5 -72t-47 -100.5t-15.5 -118z" />
    <glyph glyph-name="p" unicode="p" horiz-adv-x="1288" 
d="M133 -471v1495h260l27 -150q114 170 325 170q209 0 333 -144t124 -388t-124 -388t-333 -144t-325 170v-586zM420 299q97 -104 229 -104q125 0 191.5 87t66.5 230t-66.5 230t-191.5 87q-130 0 -229 -102v-428z" />
    <glyph glyph-name="q" unicode="q" horiz-adv-x="1288" 
d="M86 512q0 245 123 388.5t334 143.5q206 0 325 -170l27 150h260v-1460l-287 -35v621q-122 -170 -325 -170q-211 0 -334 143.5t-123 388.5zM379 512q0 -143 67 -230t193 -87q133 0 227 104v428q-95 102 -227 102q-126 0 -193 -87t-67 -230z" />
    <glyph glyph-name="r" unicode="r" horiz-adv-x="833" 
d="M133 0v1024h260l23 -231q55 117 150 184t204 67l27 -286q-123 0 -223.5 -35t-153.5 -90v-633h-287z" />
    <glyph glyph-name="s" unicode="s" horiz-adv-x="1034" 
d="M76 68l49 200q81 -40 184 -60t185 -20q172 0 172 113q0 33 -25 57t-65 37.5t-92 28t-106 27t-106 36t-92 53.5t-65 80.5t-25 116.5q0 153 118.5 230t321.5 77q119 0 236 -24t192 -62l-49 -200q-82 39 -185 58.5t-187 19.5q-73 0 -113.5 -25t-40.5 -74q0 -29 19.5 -50.5
t53 -35.5t76.5 -26t90.5 -24t95.5 -26.5t91 -37t76.5 -51.5t53 -74t19.5 -101q0 -161 -115.5 -246t-340.5 -85q-118 0 -235.5 24.5t-190.5 63.5z" />
    <glyph glyph-name="t" unicode="t" horiz-adv-x="839" 
d="M47 809v215h160v322l287 47v-369h305v-215h-305v-487q0 -127 145 -127q68 0 145 26l35 -201q-112 -40 -262 -40q-180 0 -265 87t-85 246v496h-160z" />
    <glyph glyph-name="u" unicode="u" horiz-adv-x="1222" 
d="M123 362v648l287 34v-675q0 -84 48 -129t138 -45q116 0 205 96v733h286v-1024h-258l-26 147q-112 -167 -322 -167q-175 0 -266.5 96.5t-91.5 285.5z" />
    <glyph glyph-name="v" unicode="v" horiz-adv-x="1232" 
d="M37 1024h311l275 -674l262 674h309l-453 -1038h-252z" />
    <glyph glyph-name="w" unicode="w" horiz-adv-x="1738" 
d="M37 1024h276l209 -713l213 713h250l232 -713l206 713h277l-328 -1038h-295l-217 645l-201 -645h-294z" />
    <glyph glyph-name="x" unicode="x" horiz-adv-x="1136" 
d="M14 0l389 539l-364 485h317l213 -293l207 293h309l-354 -479l391 -545h-334l-229 326l-229 -326h-316z" />
    <glyph glyph-name="y" unicode="y" horiz-adv-x="1239" 
d="M37 1024h297l293 -688l278 688h297l-477 -1077q-36 -83 -69 -143t-76.5 -115t-92.5 -88t-114 -52.5t-144 -19.5q-101 0 -178 25l33 206q75 -16 137 -16q75 0 128 39t100 131l38 84z" />
    <glyph glyph-name="z" unicode="z" horiz-adv-x="1030" 
d="M63 0v174l500 635h-471v215h834v-174l-500 -635h539v-215h-902z" />
    <glyph glyph-name="braceleft" unicode="{" horiz-adv-x="722" 
d="M102 606v180q85 0 127.5 34.5t42.5 115.5q0 53 -20.5 185t-20.5 200q0 373 471 373v-191q-119 0 -166 -47.5t-47 -148.5q0 -54 19.5 -174t19.5 -168q0 -107 -58 -181.5t-183 -87.5q125 -13 183 -87t58 -181q0 -46 -19.5 -166t-19.5 -176q0 -101 47 -149t166 -48v-190
q-471 0 -471 375q0 67 20.5 198.5t20.5 184.5q0 82 -42 115.5t-128 33.5z" />
    <glyph glyph-name="bar" unicode="|" horiz-adv-x="468" 
d="M141 -256v1905h185v-1905h-185z" />
    <glyph glyph-name="braceright" unicode="}" horiz-adv-x="722" 
d="M20 -111q120 0 166.5 48t46.5 149q0 56 -18 176t-18 166q0 107 57.5 181t183.5 87q-126 13 -183.5 87t-57.5 182q0 48 18 168t18 174q0 101 -46.5 148.5t-166.5 47.5v191q474 0 474 -373q0 -68 -20.5 -200t-20.5 -185q0 -80 42.5 -115t125.5 -35v-180q-84 0 -126 -34
t-42 -115q0 -53 20.5 -184.5t20.5 -198.5q0 -375 -474 -375v190z" />
    <glyph glyph-name="asciitilde" unicode="~" horiz-adv-x="1021" 
d="M121 539q0 76 14.5 128t40.5 78.5t55 37t66 10.5q43 0 204.5 -38t192.5 -38q28 0 47 20t19 56h149q0 -76 -14.5 -128t-40.5 -78.5t-55 -37t-66 -10.5q-53 0 -211.5 36.5t-187.5 36.5q-28 0 -46 -18.5t-18 -54.5h-149z" />
    <glyph glyph-name="uni00A0" unicode="&#xa0;" horiz-adv-x="464" 
 />
    <glyph glyph-name="exclamdown" unicode="&#xa1;" horiz-adv-x="489" 
d="M92 -369l45 983h217l43 -983h-305zM123 780v244h244v-244h-244z" />
    <glyph glyph-name="cent" unicode="&#xa2;" horiz-adv-x="1130" 
d="M92 512q0 234 138.5 377t383.5 155v195h183v-205q128 -19 239 -78l-47 -204q-99 48 -192 67v-614q93 19 192 67l47 -204q-104 -55 -239 -78v-246h-183v236q-245 12 -383.5 155t-138.5 377zM385 512q0 -132 62.5 -211t166.5 -100v622q-104 -20 -166.5 -99.5t-62.5 -211.5z
" />
    <glyph glyph-name="sterling" unicode="&#xa3;" horiz-adv-x="1331" 
d="M76 0v244h160v336h-160v217h160v137q0 96 30.5 176.5t82.5 135.5t121.5 93.5t145.5 56t156 17.5q147 0 257 -26.5t222 -81.5l-34 -250q-213 114 -431 114q-104 0 -173.5 -58.5t-69.5 -174.5v-139h399v-217h-399v-336h680l32 -244h-1179z" />
    <glyph glyph-name="currency" unicode="&#xa4;" horiz-adv-x="1507" 
d="M76 475v135h149q-4 29 -4 86t4 86h-149v136h172q63 231 253.5 363t467.5 132q145 0 254.5 -27.5t210.5 -80.5l-50 -263q-104 67 -200 97t-205 30q-147 0 -254 -64.5t-158 -186.5h410v-136h-442q-7 -47 -7 -86q0 -32 4 -86h445v-135h-410q51 -122 155 -187t243 -65
q116 0 236 32.5t218 98.5v-266q-103 -53 -211.5 -80.5t-253.5 -27.5q-269 0 -456 132t-250 363h-172z" />
    <glyph glyph-name="yen" unicode="&#xa5;" horiz-adv-x="1443" 
d="M51 1376l299 35l369 -692l356 674h318l-432 -777h309v-217h-410v-399h-299v399h-409v217h313z" />
    <glyph glyph-name="brokenbar" unicode="&#xa6;" horiz-adv-x="479" 
d="M147 -256v778h183v-778h-183zM147 870v779h183v-779h-183z" />
    <glyph glyph-name="section" unicode="&#xa7;" horiz-adv-x="1226" 
d="M150 539q0 196 159 335q-28 64 -28 142q0 104 41.5 182t116.5 124t171 68.5t213 22.5l2 -244q-54 0 -92.5 -5.5t-73.5 -19.5t-53 -42.5t-18 -71.5q0 -42 27 -80.5t70 -70.5t95 -65t103.5 -72.5t94.5 -85t70 -109.5t27 -139q0 -196 -157 -336q28 -64 28 -144
q0 -84 -27.5 -151t-76 -112.5t-117.5 -76t-149 -44t-173 -13.5l-2 246q54 0 92.5 5t74 19t53.5 42.5t18 70.5t-27 80.5t-70 70.5t-95.5 65.5t-104.5 73t-95 85t-70 110.5t-27 140zM426 590q-2 -51 16 -93.5t57 -77.5t74.5 -59t94.5 -59.5t92 -58.5q41 61 41 114q1 51 -17 93
t-57.5 77.5t-74.5 60t-95 60t-92 58.5q-39 -61 -39 -115z" />
    <glyph glyph-name="dieresis" unicode="&#xa8;" horiz-adv-x="923" 
d="M53 1346l189 180l184 -180l-184 -179zM498 1346l188 180l184 -180l-184 -179z" />
    <glyph glyph-name="copyright" unicode="&#xa9;" horiz-adv-x="1802" 
d="M102 696q0 162 63.5 310t170.5 255t255 170.5t310 63.5t310 -63.5t255 -170.5t170.5 -255t63.5 -310t-63.5 -310t-170.5 -254.5t-255 -170t-310 -63.5t-310 63.5t-255 170t-170.5 254.5t-63.5 310zM184 696q0 -145 57 -278t153 -228.5t228.5 -152.5t278.5 -57t278.5 57
t228.5 152.5t153 228.5t57 278t-57 278t-153 229t-229 153t-278 57t-278 -57t-229 -153t-153 -229t-57 -278zM428 692q0 230 142.5 366t379.5 136q180 0 326 -78l-33 -174q-143 90 -287 90q-148 0 -235.5 -89.5t-87.5 -250.5q0 -159 86.5 -248.5t226.5 -89.5q186 0 320 92
v-178q-143 -78 -326 -78q-230 0 -371 137t-141 365z" />
    <glyph glyph-name="ordfeminine" unicode="&#xaa;" horiz-adv-x="921" 
d="M61 438v129h799v-129h-799zM68 877q0 120 93.5 179.5t252.5 59.5q71 0 143 -10v51q0 49 -40 81t-126 32q-125 0 -256 -56l-35 140q133 59 316 59q163 0 248.5 -71t85.5 -199v-266q0 -34 11 -50t44 -16q24 0 43 8v-137q-51 -14 -109 -14q-149 0 -174 120
q-91 -120 -256 -120q-111 0 -176 58.5t-65 150.5zM262 905q0 -45 33.5 -69.5t87.5 -24.5q102 0 174 78v108q-72 11 -129 11q-86 0 -126 -29t-40 -74z" />
    <glyph glyph-name="guillemotleft" unicode="&#xab;" horiz-adv-x="1103" 
d="M68 512l356 414h188l-338 -414l338 -414h-188zM477 512l357 414h188l-338 -414l338 -414h-188z" />
    <glyph glyph-name="logicalnot" unicode="&#xac;" horiz-adv-x="1157" 
d="M94 778v217h922v-669h-217v452h-705z" />
    <glyph glyph-name="uni00AD" unicode="&#xad;" horiz-adv-x="950" 
d="M117 492v217h717v-217h-717z" />
    <glyph glyph-name="registered" unicode="&#xae;" horiz-adv-x="1802" 
d="M102 696q0 162 63.5 310t170.5 255t255 170.5t310 63.5t310 -63.5t255 -170.5t170.5 -255t63.5 -310t-63.5 -310t-170.5 -254.5t-255 -170t-310 -63.5t-310 63.5t-255 170t-170.5 254.5t-63.5 310zM184 696q0 -145 57 -278t153 -228.5t228.5 -152.5t278.5 -57t278.5 57
t228.5 152.5t153 228.5t57 278t-57 278t-153 229t-229 153t-278 57t-278 -57t-229 -153t-153 -229t-57 -278zM528 205v975h428q363 0 363 -308q0 -109 -56 -181.5t-157 -100.5l262 -375l-207 -25l-254 371h-178v-356h-201zM727 725h211q87 0 131.5 35t44.5 112
q0 146 -176 146h-211v-293z" />
    <glyph glyph-name="macron" unicode="&#xaf;" horiz-adv-x="841" 
d="M102 1161v176h637v-176h-637z" />
    <glyph glyph-name="degree" unicode="&#xb0;" horiz-adv-x="784" 
d="M88 1108q0 126 89.5 214.5t215.5 88.5t214.5 -88.5t88.5 -214.5t-88 -213.5t-215 -87.5q-126 0 -215.5 88.5t-89.5 212.5zM242 1108q0 -61 44.5 -105.5t104.5 -44.5q63 0 107.5 44t44.5 106q0 63 -44.5 107.5t-107.5 44.5q-60 0 -104.5 -44.5t-44.5 -107.5z" />
    <glyph glyph-name="plusminus" unicode="&#xb1;" horiz-adv-x="1230" 
d="M113 86v219h1005v-219h-1005zM113 662v217h393v284h217v-284h395v-217h-393v-285h-217v285h-395z" />
    <glyph glyph-name="uni00B2" unicode="&#xb2;" horiz-adv-x="866" 
d="M66 629v98q0 75 28.5 136.5t73.5 103.5t100 77.5t110 65.5t100 60t73.5 69t28.5 84q0 73 -52 107t-133 34q-112 0 -278 -98l-27 158q169 94 328 94q103 0 183 -29t131.5 -95t51.5 -163q0 -62 -27.5 -117t-71 -94.5t-96.5 -75t-106.5 -65.5t-97 -58.5t-71 -61t-27.5 -66.5
h491l25 -164h-737z" />
    <glyph glyph-name="uni00B3" unicode="&#xb3;" horiz-adv-x="839" 
d="M31 692l51 142q166 -66 285 -66q211 0 211 147q0 144 -226 144h-86v143h86q211 3 211 135q0 133 -178 133q-65 0 -120.5 -14.5t-145.5 -50.5l-51 139q160 78 346 78q156 0 246 -68.5t90 -195.5q0 -167 -179 -228q207 -52 207 -233q0 -135 -99.5 -209t-281.5 -74
q-219 0 -366 78z" />
    <glyph glyph-name="acute" unicode="&#xb4;" horiz-adv-x="616" 
d="M102 1247l330 258l117 -194l-363 -185z" />
    <glyph glyph-name="uni00B5" unicode="&#xb5;" horiz-adv-x="1232" 
d="M-117 -451l35 207q46 -12 100 -12q115 0 115 123v952v191l287 34v-675q0 -84 48 -129t138 -45q116 0 205 96v733h287v-1024h-258l-27 147q-112 -167 -321 -167q-65 0 -127 16v-121q0 -158 -75 -252t-233 -94q-99 0 -174 20z" />
    <glyph glyph-name="paragraph" unicode="&#xb6;" horiz-adv-x="1251" 
d="M68 938q0 213 135.5 334t390.5 121h190v-1393h-163v483h-27q-255 0 -390.5 121t-135.5 334zM909 0v1393h162v-1393h-162z" />
    <glyph glyph-name="periodcentered" unicode="&#xb7;" horiz-adv-x="473" 
d="M115 379v244h243v-244h-243z" />
    <glyph glyph-name="cedilla" unicode="&#xb8;" horiz-adv-x="546" 
d="M61 -426l48 96q23 -13 64.5 -25t78.5 -12q51 0 78.5 22.5t27.5 63.5q0 19 -5.5 33t-21.5 24t-31.5 17t-47 13t-57 9.5t-72.5 8.5l41 188h119l-25 -100q119 -19 173 -63t54 -130q0 -88 -61 -143t-170 -55q-54 0 -107 15.5t-86 37.5z" />
    <glyph glyph-name="uni00B9" unicode="&#xb9;" horiz-adv-x="712" 
d="M45 1479l256 133h174v-821h189l24 -162h-625v162h211v628l-174 -92z" />
    <glyph glyph-name="ordmasculine" unicode="&#xba;" horiz-adv-x="921" 
d="M61 1040q0 103 44 186t135.5 135t216.5 52q185 0 290 -107.5t105 -265.5t-105 -265t-290 -107q-186 0 -291 107t-105 265zM63 438v129h797v-129h-797zM256 1040q0 -96 51 -162.5t150 -66.5q98 0 149 66.5t51 162.5t-51 163t-149 67q-99 0 -150 -67t-51 -163z" />
    <glyph glyph-name="guillemotright" unicode="&#xbb;" horiz-adv-x="1103" 
d="M80 98l338 414l-338 414h188l357 -414l-357 -414h-188zM489 98l338 414l-338 414h189l356 -414l-356 -414h-189z" />
    <glyph glyph-name="onequarter" unicode="&#xbc;" horiz-adv-x="2213" 
d="M45 1274l256 133h174v-821h189l24 -162h-625v162h211v628l-174 -92zM616 0l816 1393h190l-815 -1393h-191zM1329 190v152l504 633h205v-633h137v-152h-137v-190h-203v190h-506zM1530 342h305v393z" />
    <glyph glyph-name="onehalf" unicode="&#xbd;" horiz-adv-x="2332" 
d="M45 1274l256 133h174v-821h189l24 -162h-625v162h211v628l-174 -92zM616 0l816 1393h190l-815 -1393h-191zM1532 0v98q0 75 28.5 136.5t73.5 103.5t100 77.5t110 65.5t100 60t73.5 69t28.5 84q0 73 -51.5 107.5t-132.5 34.5q-67 0 -132.5 -26t-146.5 -73l-27 158
q169 94 328 94q103 0 183.5 -29t132 -95.5t51.5 -162.5q0 -85 -51.5 -156t-124.5 -118t-146 -88t-124.5 -85.5t-51.5 -90.5h492l24 -164h-737z" />
    <glyph glyph-name="threequarters" unicode="&#xbe;" horiz-adv-x="2279" 
d="M31 487l51 142q166 -66 285 -66q211 0 211 148q0 143 -226 143h-86v143h86q211 3 211 136t-178 133q-65 0 -120 -14.5t-146 -51.5l-51 139q160 78 346 78q156 0 246 -68.5t90 -195.5q0 -166 -179 -227q207 -52 207 -234q0 -135 -99.5 -208.5t-281.5 -73.5q-221 0 -366 77
zM684 0l815 1393h191l-816 -1393h-190zM1395 190v152l503 633h205v-633h138v-152h-138v-190h-202v190h-506zM1595 342h306v393z" />
    <glyph glyph-name="questiondown" unicode="&#xbf;" horiz-adv-x="1091" 
d="M68 8q0 88 27.5 156t71 109t96.5 73t106.5 57.5t97 52.5t71 67.5t27.5 94.5l230 -2q0 -92 -23 -163.5t-60 -115t-81.5 -76.5t-89 -58t-81.5 -50t-60 -62t-23 -85q0 -44 18 -75t52.5 -47t73.5 -22.5t91 -6.5q204 0 437 129l36 -265q-137 -56 -253 -82t-261 -26
q-81 0 -153 13.5t-137 44.5t-111.5 76t-74 112.5t-27.5 150.5zM557 780v244h244v-244h-244z" />
    <glyph glyph-name="Agrave" unicode="&#xc0;" horiz-adv-x="1468" 
d="M10 0l553 1386l355 35l538 -1403l-299 -36l-113 299h-620l-105 -281h-309zM371 1679l118 195l328 -258l-82 -121zM516 524h438l-217 586z" />
    <glyph glyph-name="Aacute" unicode="&#xc1;" horiz-adv-x="1468" 
d="M10 0l553 1386l355 35l538 -1403l-299 -36l-113 299h-620l-105 -281h-309zM516 524h438l-217 586zM662 1616l329 258l117 -195l-363 -184z" />
    <glyph glyph-name="Acircumflex" unicode="&#xc2;" horiz-adv-x="1468" 
d="M10 0l553 1386l355 35l538 -1403l-299 -36l-113 299h-620l-105 -281h-309zM412 1616l329 258l330 -258l-80 -121l-250 162l-249 -162zM516 524h438l-217 586z" />
    <glyph glyph-name="Atilde" unicode="&#xc3;" horiz-adv-x="1468" 
d="M10 0l553 1386l355 35l538 -1403l-299 -36l-113 299h-620l-105 -281h-309zM422 1516q0 77 14 129t40.5 78t55.5 36t66 10q43 0 130 -36.5t118 -36.5q28 0 46.5 18.5t18.5 54.5h148q0 -77 -14 -129t-40 -78t-55 -36t-67 -10q-51 0 -135 36.5t-113 36.5q-28 0 -46 -18.5
t-18 -54.5h-149zM516 524h438l-217 586z" />
    <glyph glyph-name="Adieresis" unicode="&#xc4;" horiz-adv-x="1468" 
d="M10 0l553 1386l355 35l538 -1403l-299 -36l-113 299h-620l-105 -281h-309zM330 1714l188 180l184 -180l-184 -178zM516 524h438l-217 586zM774 1714l189 180l184 -180l-184 -178z" />
    <glyph glyph-name="Aring" unicode="&#xc5;" horiz-adv-x="1468" 
d="M10 0l553 1386l355 35l538 -1403l-299 -36l-113 299h-620l-105 -281h-309zM516 524h438l-217 586zM539 1698q0 83 58.5 141.5t143.5 58.5q83 0 142 -58.5t59 -141.5q0 -86 -58 -144.5t-143 -58.5t-143.5 59t-58.5 144zM651 1698q0 -36 26 -62t62 -26q37 0 63.5 25.5
t26.5 62.5q0 35 -26.5 61.5t-63.5 26.5q-35 0 -61.5 -26.5t-26.5 -61.5z" />
    <glyph glyph-name="AE" unicode="&#xc6;" horiz-adv-x="2170" 
d="M-20 0l907 1393h1167v-244h-690v-318h616l33 -245h-649v-342h711v-244h-1012v279h-565l-179 -279h-339zM639 510h424v639h-10z" />
    <glyph glyph-name="Ccedilla" unicode="&#xc7;" horiz-adv-x="1376" 
d="M82 696q0 327 203.5 522t543.5 195q147 0 256.5 -27.5t208.5 -80.5l-47 -263q-105 67 -201.5 97t-205.5 30q-206 0 -328.5 -124t-122.5 -349q0 -224 120 -348.5t318 -124.5q116 0 235.5 32.5t217.5 98.5v-266q-198 -103 -436 -108l-17 -68q119 -19 173.5 -63t54.5 -130
q0 -88 -61.5 -143t-170.5 -55q-54 0 -106.5 15.5t-85.5 37.5l47 96q23 -13 64.5 -25t78.5 -12q51 0 79 22.5t28 63.5q0 19 -6 33t-21.5 24t-31 17t-47.5 13t-57.5 9.5t-72.5 8.5l35 160q-294 26 -469.5 217t-175.5 495z" />
    <glyph glyph-name="Egrave" unicode="&#xc8;" horiz-adv-x="1263" 
d="M156 0v1393h991v-244h-690v-318h614l35 -243h-649v-344h710v-244h-1011zM289 1679l119 195l327 -258l-82 -121z" />
    <glyph glyph-name="Eacute" unicode="&#xc9;" horiz-adv-x="1263" 
d="M156 0v1393h991v-244h-690v-318h614l35 -243h-649v-344h710v-244h-1011zM580 1616l329 258l117 -195l-362 -184z" />
    <glyph glyph-name="Ecircumflex" unicode="&#xca;" horiz-adv-x="1263" 
d="M156 0v1393h991v-244h-690v-318h614l35 -243h-649v-344h710v-244h-1011zM330 1616l329 258l330 -258l-80 -121l-250 162l-249 -162z" />
    <glyph glyph-name="Edieresis" unicode="&#xcb;" horiz-adv-x="1263" 
d="M156 0v1393h991v-244h-690v-318h614l35 -243h-649v-344h710v-244h-1011zM248 1714l188 180l185 -180l-185 -178zM692 1714l189 180l184 -180l-184 -178z" />
    <glyph glyph-name="Igrave" unicode="&#xcc;" horiz-adv-x="614" 
d="M-61 1679l118 195l328 -258l-82 -121zM156 0v1376l301 35v-1411h-301z" />
    <glyph glyph-name="Iacute" unicode="&#xcd;" horiz-adv-x="614" 
d="M156 0v1376l301 35v-1411h-301zM227 1616l330 258l117 -195l-363 -184z" />
    <glyph glyph-name="Icircumflex" unicode="&#xce;" horiz-adv-x="614" 
d="M-20 1616l329 258l330 -258l-80 -121l-250 162l-250 -162zM156 0v1376l301 35v-1411h-301z" />
    <glyph glyph-name="Idieresis" unicode="&#xcf;" horiz-adv-x="614" 
d="M-102 1714l188 180l184 -180l-184 -178zM156 0v1376l301 35v-1411h-301zM342 1714l188 180l185 -180l-185 -178z" />
    <glyph glyph-name="Eth" unicode="&#xd0;" horiz-adv-x="1542" 
d="M31 596v217h125v580h528q174 0 317 -53.5t237 -147.5t145 -221t51 -275q0 -118 -32 -224t-95.5 -192t-153 -148.5t-209.5 -97t-260 -34.5h-528v596h-125zM457 244h227q208 0 325 121.5t117 330.5t-117 331t-325 122h-227v-336h284v-217h-284v-352z" />
    <glyph glyph-name="Ntilde" unicode="&#xd1;" horiz-adv-x="1570" 
d="M156 0v1393h295l690 -928v911l272 35v-1411h-293l-692 942v-942h-272zM475 1516q0 77 14 129t40.5 78t55.5 36t66 10q43 0 130 -36.5t118 -36.5q28 0 47 18.5t19 54.5h147q0 -77 -14 -129t-40 -78t-55 -36t-67 -10q-50 0 -134 36.5t-114 36.5q-28 0 -45.5 -18.5
t-17.5 -54.5h-150z" />
    <glyph glyph-name="Ograve" unicode="&#xd2;" 
d="M82 696q0 148 50 278t142.5 228t235.5 154.5t319 56.5t319 -56.5t236 -154.5t143 -228t50 -278q0 -149 -50 -278.5t-143 -227.5t-236 -154t-319 -56t-319 56t-235.5 154t-142.5 227.5t-50 278.5zM389 696q0 -213 115.5 -343t324.5 -130t325 130.5t116 342.5t-116 342.5
t-325 130.5t-324.5 -130t-115.5 -343zM461 1679l119 195l327 -258l-82 -121z" />
    <glyph glyph-name="Oacute" unicode="&#xd3;" 
d="M82 696q0 148 50 278t142.5 228t235.5 154.5t319 56.5t319 -56.5t236 -154.5t143 -228t50 -278q0 -149 -50 -278.5t-143 -227.5t-236 -154t-319 -56t-319 56t-235.5 154t-142.5 227.5t-50 278.5zM389 696q0 -213 115.5 -343t324.5 -130t325 130.5t116 342.5t-116 342.5
t-325 130.5t-324.5 -130t-115.5 -343zM750 1616l329 258l117 -195l-362 -184z" />
    <glyph glyph-name="Ocircumflex" unicode="&#xd4;" 
d="M82 696q0 148 50 278t142.5 228t235.5 154.5t319 56.5t319 -56.5t236 -154.5t143 -228t50 -278q0 -149 -50 -278.5t-143 -227.5t-236 -154t-319 -56t-319 56t-235.5 154t-142.5 227.5t-50 278.5zM389 696q0 -213 115.5 -343t324.5 -130t325 130.5t116 342.5t-116 342.5
t-325 130.5t-324.5 -130t-115.5 -343zM502 1616l329 258l330 -258l-80 -121l-250 162l-249 -162z" />
    <glyph glyph-name="Otilde" unicode="&#xd5;" 
d="M82 696q0 148 50 278t142.5 228t235.5 154.5t319 56.5t319 -56.5t236 -154.5t143 -228t50 -278q0 -149 -50 -278.5t-143 -227.5t-236 -154t-319 -56t-319 56t-235.5 154t-142.5 227.5t-50 278.5zM389 696q0 -213 115.5 -343t324.5 -130t325 130.5t116 342.5t-116 342.5
t-325 130.5t-324.5 -130t-115.5 -343zM512 1516q0 77 14 129t40.5 78t55.5 36t66 10q43 0 130 -36.5t118 -36.5q28 0 46.5 18.5t18.5 54.5h148q0 -77 -14 -129t-40 -78t-55 -36t-67 -10q-51 0 -135 36.5t-113 36.5q-28 0 -45.5 -18.5t-17.5 -54.5h-150z" />
    <glyph glyph-name="Odieresis" unicode="&#xd6;" 
d="M82 696q0 148 50 278t142.5 228t235.5 154.5t319 56.5t319 -56.5t236 -154.5t143 -228t50 -278q0 -149 -50 -278.5t-143 -227.5t-236 -154t-319 -56t-319 56t-235.5 154t-142.5 227.5t-50 278.5zM389 696q0 -213 115.5 -343t324.5 -130t325 130.5t116 342.5t-116 342.5
t-325 130.5t-324.5 -130t-115.5 -343zM420 1714l188 180l185 -180l-185 -178zM864 1714l189 180l184 -180l-184 -178z" />
    <glyph glyph-name="multiply" unicode="&#xd7;" horiz-adv-x="1052" 
d="M57 344l154 -154l317 316l316 -316l153 154l-315 315l315 318l-153 153l-316 -317l-317 317l-154 -153l318 -318z" />
    <glyph glyph-name="Oslash" unicode="&#xd8;" 
d="M82 696q0 148 50 278t142.5 228t235.5 154.5t319 56.5q199 0 351 -70l108 152h234l-181 -252q115 -99 175.5 -241t60.5 -306q0 -149 -50 -278.5t-143 -227.5t-236 -154t-319 -56q-197 0 -350 69l-108 -151h-234l180 252q-115 97 -175 238.5t-60 307.5zM389 696
q0 -191 94 -317l543 751q-89 39 -197 39q-209 0 -324.5 -130t-115.5 -343zM633 262q89 -39 196 -39q209 0 325 130.5t116 342.5q0 192 -94 318z" />
    <glyph glyph-name="Ugrave" unicode="&#xd9;" horiz-adv-x="1529" 
d="M143 506v870l301 35v-844q0 -171 76 -257.5t246 -86.5t244.5 86t74.5 258v809l301 35v-905q0 -85 -23 -162t-72 -144t-120.5 -115.5t-175 -76.5t-229.5 -28q-128 0 -232.5 28.5t-176 78t-120.5 117t-71.5 143.5t-22.5 159zM395 1679l119 195l328 -258l-82 -121z" />
    <glyph glyph-name="Uacute" unicode="&#xda;" horiz-adv-x="1529" 
d="M143 506v870l301 35v-844q0 -171 76 -257.5t246 -86.5t244.5 86t74.5 258v809l301 35v-905q0 -85 -23 -162t-72 -144t-120.5 -115.5t-175 -76.5t-229.5 -28q-128 0 -232.5 28.5t-176 78t-120.5 117t-71.5 143.5t-22.5 159zM686 1616l330 258l117 -195l-363 -184z" />
    <glyph glyph-name="Ucircumflex" unicode="&#xdb;" horiz-adv-x="1529" 
d="M143 506v870l301 35v-844q0 -171 76 -257.5t246 -86.5t244.5 86t74.5 258v809l301 35v-905q0 -85 -23 -162t-72 -144t-120.5 -115.5t-175 -76.5t-229.5 -28q-128 0 -232.5 28.5t-176 78t-120.5 117t-71.5 143.5t-22.5 159zM436 1616l330 258l330 -258l-80 -121l-250 162
l-250 -162z" />
    <glyph glyph-name="Udieresis" unicode="&#xdc;" horiz-adv-x="1529" 
d="M143 506v870l301 35v-844q0 -171 76 -257.5t246 -86.5t244.5 86t74.5 258v809l301 35v-905q0 -85 -23 -162t-72 -144t-120.5 -115.5t-175 -76.5t-229.5 -28q-128 0 -232.5 28.5t-176 78t-120.5 117t-71.5 143.5t-22.5 159zM354 1714l189 180l184 -180l-184 -178z
M799 1714l188 180l184 -180l-184 -178z" />
    <glyph glyph-name="Yacute" unicode="&#xdd;" horiz-adv-x="1390" 
d="M23 1376l301 35l366 -692l359 674h317l-532 -959v-434h-302v438zM610 1616l330 258l117 -195l-363 -184z" />
    <glyph glyph-name="Thorn" unicode="&#xde;" horiz-adv-x="1392" 
d="M156 0v1376l301 35v-237h309q260 0 405.5 -127t145.5 -340q0 -214 -145.5 -341.5t-405.5 -127.5h-309v-238h-301zM457 481h295q118 0 188 60.5t70 165.5t-70 164t-188 59h-295v-449z" />
    <glyph glyph-name="germandbls" unicode="&#xdf;" horiz-adv-x="1214" 
d="M133 0v1133q0 170 99.5 266t295.5 96q155 0 258 -41l-49 -201q-69 27 -162 27q-155 0 -155 -154v-102h688l-197 -399q117 -65 181.5 -163.5t64.5 -246.5q0 -238 -156 -378t-421 -140v231q276 0 276 287q0 105 -78 183t-190 96l170 315h-338v-809h-287z" />
    <glyph glyph-name="agrave" unicode="&#xe0;" horiz-adv-x="1212" 
d="M82 276q0 117 64 195.5t173.5 114t260.5 35.5q62 0 198 -13v68q0 69 -55 111t-176 42q-186 0 -367 -79l-49 208q196 86 455 86q236 0 357.5 -101.5t121.5 -287.5v-370q0 -47 15.5 -68.5t60.5 -21.5q38 0 61 8v-203q-72 -20 -158 -20q-112 0 -172 42t-81 125
q-131 -167 -363 -167q-159 0 -252.5 84t-93.5 212zM225 1311l119 194l328 -258l-82 -121zM377 319q0 -61 44.5 -92.5t117.5 -31.5q74 0 129 24.5t110 77.5v135q-77 14 -178 14q-120 0 -171.5 -32t-51.5 -95z" />
    <glyph glyph-name="aacute" unicode="&#xe1;" horiz-adv-x="1212" 
d="M82 276q0 117 64 195.5t173.5 114t260.5 35.5q62 0 198 -13v68q0 69 -55 111t-176 42q-186 0 -367 -79l-49 208q196 86 455 86q236 0 357.5 -101.5t121.5 -287.5v-370q0 -47 15.5 -68.5t60.5 -21.5q38 0 61 8v-203q-72 -20 -158 -20q-112 0 -172 42t-81 125
q-131 -167 -363 -167q-159 0 -252.5 84t-93.5 212zM377 319q0 -61 44.5 -92.5t117.5 -31.5q74 0 129 24.5t110 77.5v135q-77 14 -178 14q-120 0 -171.5 -32t-51.5 -95zM516 1247l330 258l117 -194l-363 -185z" />
    <glyph glyph-name="acircumflex" unicode="&#xe2;" horiz-adv-x="1212" 
d="M82 276q0 117 64 195.5t173.5 114t260.5 35.5q62 0 198 -13v68q0 69 -55 111t-176 42q-186 0 -367 -79l-49 208q196 86 455 86q236 0 357.5 -101.5t121.5 -287.5v-370q0 -47 15.5 -68.5t60.5 -21.5q38 0 61 8v-203q-72 -20 -158 -20q-112 0 -172 42t-81 125
q-131 -167 -363 -167q-159 0 -252.5 84t-93.5 212zM266 1247l330 258l330 -258l-80 -121l-250 162l-250 -162zM377 319q0 -61 44.5 -92.5t117.5 -31.5q74 0 129 24.5t110 77.5v135q-77 14 -178 14q-120 0 -171.5 -32t-51.5 -95z" />
    <glyph glyph-name="atilde" unicode="&#xe3;" horiz-adv-x="1212" 
d="M82 276q0 117 64 195.5t173.5 114t260.5 35.5q62 0 198 -13v68q0 69 -55 111t-176 42q-186 0 -367 -79l-49 208q196 86 455 86q236 0 357.5 -101.5t121.5 -287.5v-370q0 -47 15.5 -68.5t60.5 -21.5q38 0 61 8v-203q-72 -20 -158 -20q-112 0 -172 42t-81 125
q-131 -167 -363 -167q-159 0 -252.5 84t-93.5 212zM279 1147q0 77 14 129t40.5 78t55.5 36.5t66 10.5q43 0 129.5 -37t117.5 -37q28 0 47 19t19 55h147q0 -77 -14 -129t-40 -78t-55 -36.5t-67 -10.5q-51 0 -134 37t-113 37q-28 0 -46 -19t-18 -55h-149zM377 319
q0 -61 44.5 -92.5t117.5 -31.5q74 0 129 24.5t110 77.5v135q-77 14 -178 14q-120 0 -171.5 -32t-51.5 -95z" />
    <glyph glyph-name="adieresis" unicode="&#xe4;" horiz-adv-x="1212" 
d="M82 276q0 117 64 195.5t173.5 114t260.5 35.5q62 0 198 -13v68q0 69 -55 111t-176 42q-186 0 -367 -79l-49 208q196 86 455 86q236 0 357.5 -101.5t121.5 -287.5v-370q0 -47 15.5 -68.5t60.5 -21.5q38 0 61 8v-203q-72 -20 -158 -20q-112 0 -172 42t-81 125
q-131 -167 -363 -167q-159 0 -252.5 84t-93.5 212zM184 1346l189 180l184 -180l-184 -179zM377 319q0 -61 44.5 -92.5t117.5 -31.5q74 0 129 24.5t110 77.5v135q-77 14 -178 14q-120 0 -171.5 -32t-51.5 -95zM629 1346l188 180l184 -180l-184 -179z" />
    <glyph glyph-name="aring" unicode="&#xe5;" horiz-adv-x="1212" 
d="M82 276q0 117 64 195.5t173.5 114t260.5 35.5q62 0 198 -13v68q0 69 -55 111t-176 42q-186 0 -367 -79l-49 208q196 86 455 86q236 0 357.5 -101.5t121.5 -287.5v-370q0 -47 15.5 -68.5t60.5 -21.5q38 0 61 8v-203q-72 -20 -158 -20q-112 0 -172 42t-81 125
q-131 -167 -363 -167q-159 0 -252.5 84t-93.5 212zM377 319q0 -61 44.5 -92.5t117.5 -31.5q74 0 129 24.5t110 77.5v135q-77 14 -178 14q-120 0 -171.5 -32t-51.5 -95zM393 1329q0 83 59 142t144 59q83 0 142 -59t59 -142q0 -86 -58 -144.5t-143 -58.5t-144 59t-59 144z
M506 1329q0 -36 26 -62t62 -26q37 0 63.5 25.5t26.5 62.5q0 35 -26.5 61.5t-63.5 26.5q-35 0 -61.5 -26.5t-26.5 -61.5z" />
    <glyph glyph-name="ae" unicode="&#xe6;" horiz-adv-x="1908" 
d="M82 276q0 117 63.5 197.5t174 118t260.5 37.5q80 0 198 -15v62q0 69 -55 111t-176 42q-186 0 -367 -79l-49 208q196 86 455 86q250 0 372 -116q143 116 371 116q106 0 191 -27t141 -73.5t93 -112t53 -137.5t16 -155q0 -65 -6 -109h-738q22 -120 100.5 -184t209.5 -64
q186 0 342 76l49 -190q-74 -39 -187.5 -63.5t-232.5 -24.5q-181 0 -308 59.5t-196 169.5q-140 -229 -428 -229q-159 0 -252.5 84t-93.5 212zM377 319q0 -61 44.5 -92.5t117.5 -31.5q77 0 140.5 31.5t125.5 99.5q-16 48 -23 112q-85 15 -182 15q-223 0 -223 -134zM1079 616
h457q-4 228 -215 228q-93 0 -157 -56t-85 -172z" />
    <glyph glyph-name="ccedilla" unicode="&#xe7;" horiz-adv-x="1095" 
d="M86 512q0 244 149 388t412 144q217 0 383 -88l-47 -204q-161 77 -307 77q-131 0 -214 -81.5t-83 -235.5t83 -235.5t214 -81.5q146 0 307 77l47 -204q-153 -80 -350 -88l-16 -68q119 -19 173 -63t54 -130q0 -88 -61.5 -143t-170.5 -55q-54 0 -106.5 15.5t-85.5 37.5l47 96
q23 -13 64.5 -25t78.5 -12q51 0 79 22.5t28 63.5q0 19 -6 33t-21.5 24t-31 17t-47.5 13t-57.5 9.5t-72.5 8.5l35 160q-226 23 -351.5 164t-125.5 364z" />
    <glyph glyph-name="egrave" unicode="&#xe8;" horiz-adv-x="1214" 
d="M86 512q0 242 148.5 387t400.5 145q107 0 192 -27t141 -73.5t93 -112t53 -137.5t16 -155q0 -22 -6 -109h-737q20 -120 99 -184t210 -64q183 0 342 76l47 -190q-74 -39 -187 -63.5t-230 -24.5q-285 0 -433.5 142t-148.5 390zM248 1311l119 194l327 -258l-82 -121zM387 616
h457q-4 228 -215 228q-94 0 -158.5 -56.5t-83.5 -171.5z" />
    <glyph glyph-name="eacute" unicode="&#xe9;" horiz-adv-x="1214" 
d="M86 512q0 242 148.5 387t400.5 145q107 0 192 -27t141 -73.5t93 -112t53 -137.5t16 -155q0 -22 -6 -109h-737q20 -120 99 -184t210 -64q183 0 342 76l47 -190q-74 -39 -187 -63.5t-230 -24.5q-285 0 -433.5 142t-148.5 390zM387 616h457q-4 228 -215 228
q-94 0 -158.5 -56.5t-83.5 -171.5zM539 1247l329 258l117 -194l-362 -185z" />
    <glyph glyph-name="ecircumflex" unicode="&#xea;" horiz-adv-x="1214" 
d="M86 512q0 242 148.5 387t400.5 145q107 0 192 -27t141 -73.5t93 -112t53 -137.5t16 -155q0 -22 -6 -109h-737q20 -120 99 -184t210 -64q183 0 342 76l47 -190q-74 -39 -187 -63.5t-230 -24.5q-285 0 -433.5 142t-148.5 390zM289 1247l329 258l330 -258l-80 -121l-250 162
l-249 -162zM387 616h457q-4 228 -215 228q-94 0 -158.5 -56.5t-83.5 -171.5z" />
    <glyph glyph-name="edieresis" unicode="&#xeb;" horiz-adv-x="1214" 
d="M86 512q0 242 148.5 387t400.5 145q107 0 192 -27t141 -73.5t93 -112t53 -137.5t16 -155q0 -22 -6 -109h-737q20 -120 99 -184t210 -64q183 0 342 76l47 -190q-74 -39 -187 -63.5t-230 -24.5q-285 0 -433.5 142t-148.5 390zM207 1346l188 180l185 -180l-185 -179z
M387 616h457q-4 228 -215 228q-94 0 -158.5 -56.5t-83.5 -171.5zM651 1346l189 180l184 -180l-184 -179z" />
    <glyph glyph-name="igrave" unicode="&#xec;" horiz-adv-x="552" 
d="M-92 1311l119 194l327 -258l-82 -121zM133 0v1024h287v-1024h-287z" />
    <glyph glyph-name="iacute" unicode="&#xed;" horiz-adv-x="552" 
d="M133 0v1024h287v-1024h-287zM197 1247l329 258l117 -194l-362 -185z" />
    <glyph glyph-name="icircumflex" unicode="&#xee;" horiz-adv-x="552" 
d="M-51 1247l330 258l329 -258l-80 -121l-249 162l-250 -162zM133 0v1024h287v-1024h-287z" />
    <glyph glyph-name="idieresis" unicode="&#xef;" horiz-adv-x="552" 
d="M-133 1346l188 180l185 -180l-185 -179zM133 0v1024h287v-1024h-287zM311 1346l189 180l184 -180l-184 -179z" />
    <glyph glyph-name="eth" unicode="&#xf0;" horiz-adv-x="1329" 
d="M86 459q0 185 120.5 306.5t325.5 121.5q112 0 224 -48t182 -143q0 351 -172 484l-109 -176l-159 90l94 151q-5 0 -15.5 1t-15.5 1q-92 0 -161 -18t-148 -58l-80 199q99 48 198 69t224 21q75 0 127 -8l90 145l158 -90l-70 -112q88 -44 153.5 -117t104 -165.5t57.5 -196
t19 -218.5q0 -156 -36 -285t-108 -226.5t-189 -152t-271 -54.5q-131 0 -235.5 37t-171 102t-101.5 152t-35 188zM391 446q0 -107 71 -179t177 -72q132 0 204 90t83 235q-41 71 -122 118.5t-171 47.5q-105 0 -173.5 -67t-68.5 -173z" />
    <glyph glyph-name="ntilde" unicode="&#xf1;" horiz-adv-x="1222" 
d="M133 0v1024h260l25 -147q112 167 323 167q175 0 267 -96.5t92 -285.5v-662h-287v655q0 85 -47.5 129.5t-138.5 44.5q-118 0 -207 -96v-733h-287zM322 1147q0 77 14 129t40.5 78t55.5 36.5t66 10.5q43 0 129.5 -37t117.5 -37q28 0 47 19t19 55h147q0 -77 -14 -129t-40 -78
t-55 -36.5t-67 -10.5q-50 0 -134 37t-113 37q-28 0 -46 -19t-18 -55h-149z" />
    <glyph glyph-name="ograve" unicode="&#xf2;" horiz-adv-x="1304" 
d="M86 512q0 109 37 204.5t106 169t178.5 116t245.5 42.5q135 0 243.5 -42.5t178.5 -116t107 -169t37 -204.5t-37 -204.5t-107 -169t-178.5 -116t-243.5 -42.5q-136 0 -245.5 42.5t-178.5 116t-106 169t-37 204.5zM283 1311l118 194l328 -258l-82 -121zM379 512
q0 -63 15.5 -118t47 -100.5t85.5 -72t124 -26.5t124 26.5t85.5 71.5t47.5 100.5t16 118.5t-16 118.5t-47.5 100.5t-85.5 71.5t-124 26.5t-124 -26.5t-85.5 -72t-47 -100.5t-15.5 -118z" />
    <glyph glyph-name="oacute" unicode="&#xf3;" horiz-adv-x="1304" 
d="M86 512q0 109 37 204.5t106 169t178.5 116t245.5 42.5q135 0 243.5 -42.5t178.5 -116t107 -169t37 -204.5t-37 -204.5t-107 -169t-178.5 -116t-243.5 -42.5q-136 0 -245.5 42.5t-178.5 116t-106 169t-37 204.5zM379 512q0 -63 15.5 -118t47 -100.5t85.5 -72t124 -26.5
t124 26.5t85.5 71.5t47.5 100.5t16 118.5t-16 118.5t-47.5 100.5t-85.5 71.5t-124 26.5t-124 -26.5t-85.5 -72t-47 -100.5t-15.5 -118zM573 1247l330 258l117 -194l-363 -185z" />
    <glyph glyph-name="ocircumflex" unicode="&#xf4;" horiz-adv-x="1304" 
d="M86 512q0 109 37 204.5t106 169t178.5 116t245.5 42.5q135 0 243.5 -42.5t178.5 -116t107 -169t37 -204.5t-37 -204.5t-107 -169t-178.5 -116t-243.5 -42.5q-136 0 -245.5 42.5t-178.5 116t-106 169t-37 204.5zM324 1247l329 258l330 -258l-80 -121l-250 162l-250 -162z
M379 512q0 -63 15.5 -118t47 -100.5t85.5 -72t124 -26.5t124 26.5t85.5 71.5t47.5 100.5t16 118.5t-16 118.5t-47.5 100.5t-85.5 71.5t-124 26.5t-124 -26.5t-85.5 -72t-47 -100.5t-15.5 -118z" />
    <glyph glyph-name="otilde" unicode="&#xf5;" horiz-adv-x="1304" 
d="M86 512q0 109 37 204.5t106 169t178.5 116t245.5 42.5q135 0 243.5 -42.5t178.5 -116t107 -169t37 -204.5t-37 -204.5t-107 -169t-178.5 -116t-243.5 -42.5q-136 0 -245.5 42.5t-178.5 116t-106 169t-37 204.5zM334 1147q0 77 14 129t40.5 78t55.5 36.5t66 10.5
q43 0 130 -37t118 -37q28 0 46.5 19t18.5 55h148q0 -77 -14 -129t-40 -78t-55 -36.5t-67 -10.5q-51 0 -135 37t-113 37q-28 0 -46 -19t-18 -55h-149zM379 512q0 -63 15.5 -118t47 -100.5t85.5 -72t124 -26.5t124 26.5t85.5 71.5t47.5 100.5t16 118.5t-16 118.5t-47.5 100.5
t-85.5 71.5t-124 26.5t-124 -26.5t-85.5 -72t-47 -100.5t-15.5 -118z" />
    <glyph glyph-name="odieresis" unicode="&#xf6;" horiz-adv-x="1304" 
d="M86 512q0 109 37 204.5t106 169t178.5 116t245.5 42.5q135 0 243.5 -42.5t178.5 -116t107 -169t37 -204.5t-37 -204.5t-107 -169t-178.5 -116t-243.5 -42.5q-136 0 -245.5 42.5t-178.5 116t-106 169t-37 204.5zM242 1346l188 180l184 -180l-184 -179zM379 512
q0 -63 15.5 -118t47 -100.5t85.5 -72t124 -26.5t124 26.5t85.5 71.5t47.5 100.5t16 118.5t-16 118.5t-47.5 100.5t-85.5 71.5t-124 26.5t-124 -26.5t-85.5 -72t-47 -100.5t-15.5 -118zM686 1346l188 180l185 -180l-185 -179z" />
    <glyph glyph-name="divide" unicode="&#xf7;" horiz-adv-x="1132" 
d="M106 553v217h922v-217h-922zM463 164v237h235v-237h-235zM463 922v239h235v-239h-235z" />
    <glyph glyph-name="oslash" unicode="&#xf8;" horiz-adv-x="1304" 
d="M86 512q0 109 37 204.5t106 169t178.5 116t245.5 42.5q126 0 224 -34l73 116h166l-112 -180q104 -72 159.5 -186.5t55.5 -247.5q0 -109 -37 -204.5t-107 -169t-178.5 -116t-243.5 -42.5q-132 0 -227 36l-74 -118h-166l113 182q-104 71 -158.5 184t-54.5 248zM379 512
q0 -127 57 -213l320 512q-46 18 -105 18q-70 0 -124 -26.5t-85.5 -72t-47 -100.5t-15.5 -118zM549 213q43 -18 102 -18q70 0 124 26.5t85.5 71.5t47.5 100.5t16 118.5q0 126 -58 211z" />
    <glyph glyph-name="ugrave" unicode="&#xf9;" horiz-adv-x="1222" 
d="M123 362v648l287 34v-675q0 -84 48 -129t138 -45q116 0 205 96v733h286v-1024h-258l-26 147q-112 -167 -322 -167q-175 0 -266.5 96.5t-91.5 285.5zM242 1311l118 194l328 -258l-82 -121z" />
    <glyph glyph-name="uacute" unicode="&#xfa;" horiz-adv-x="1222" 
d="M123 362v648l287 34v-675q0 -84 48 -129t138 -45q116 0 205 96v733h286v-1024h-258l-26 147q-112 -167 -322 -167q-175 0 -266.5 96.5t-91.5 285.5zM530 1247l330 258l117 -194l-363 -185z" />
    <glyph glyph-name="ucircumflex" unicode="&#xfb;" horiz-adv-x="1222" 
d="M123 362v648l287 34v-675q0 -84 48 -129t138 -45q116 0 205 96v733h286v-1024h-258l-26 147q-112 -167 -322 -167q-175 0 -266.5 96.5t-91.5 285.5zM283 1247l329 258l330 -258l-80 -121l-250 162l-250 -162z" />
    <glyph glyph-name="udieresis" unicode="&#xfc;" horiz-adv-x="1222" 
d="M123 362v648l287 34v-675q0 -84 48 -129t138 -45q116 0 205 96v733h286v-1024h-258l-26 147q-112 -167 -322 -167q-175 0 -266.5 96.5t-91.5 285.5zM201 1346l188 180l184 -180l-184 -179zM645 1346l189 180l184 -180l-184 -179z" />
    <glyph glyph-name="yacute" unicode="&#xfd;" horiz-adv-x="1239" 
d="M37 1024h297l293 -688l278 688h297l-477 -1077q-36 -83 -69 -143t-76.5 -115t-92.5 -88t-114 -52.5t-144 -19.5q-101 0 -178 25l33 206q75 -16 137 -16q75 0 128 39t100 131l38 84zM547 1247l330 258l116 -194l-362 -185z" />
    <glyph glyph-name="thorn" unicode="&#xfe;" horiz-adv-x="1288" 
d="M133 -471v1931l287 35v-621q114 170 325 170q209 0 333 -144t124 -388t-124 -388t-333 -144t-325 170v-586zM420 299q97 -104 229 -104q125 0 191.5 87t66.5 230t-66.5 230t-191.5 87q-130 0 -229 -102v-428z" />
    <glyph glyph-name="ydieresis" unicode="&#xff;" horiz-adv-x="1239" 
d="M37 1024h297l293 -688l278 688h297l-477 -1077q-36 -83 -69 -143t-76.5 -115t-92.5 -88t-114 -52.5t-144 -19.5q-101 0 -178 25l33 206q75 -16 137 -16q75 0 128 39t100 131l38 84zM217 1346l189 180l184 -180l-184 -179zM662 1346l188 180l184 -180l-184 -179z" />
    <glyph glyph-name="OE" unicode="&#x152;" horiz-adv-x="2103" 
d="M82 696q0 149 45 275t130.5 220.5t221 148t307.5 53.5h1201v-244h-680v-318h606l33 -245h-639v-342h700v-244h-1221q-172 0 -307.5 53t-221.5 147t-130.5 220t-44.5 276zM389 696q0 -213 99 -332.5t296 -119.5h224v905h-224q-197 0 -296 -120t-99 -333z" />
    <glyph glyph-name="oe" unicode="&#x153;" horiz-adv-x="2056" 
d="M86 512q0 109 37 204.5t106 169t178.5 116t245.5 42.5q268 0 414 -159q143 159 410 159q106 0 191 -27t140.5 -73.5t92.5 -112t53 -137.5t16 -155q0 -65 -6 -109h-737q20 -120 99 -184t210 -64q183 0 342 76l49 -190q-75 -39 -189 -63.5t-231 -24.5q-297 0 -440 159
q-149 -159 -414 -159q-136 0 -245.5 42.5t-178.5 116t-106 169t-37 204.5zM379 512q0 -63 15.5 -118t47 -100.5t85.5 -72t124 -26.5t124 26.5t85.5 71.5t47.5 100.5t16 118.5t-16 118.5t-47.5 100.5t-85.5 71.5t-124 26.5t-124 -26.5t-85.5 -72t-47 -100.5t-15.5 -118z
M1227 616h456q-4 228 -215 228q-94 0 -158 -56.5t-83 -171.5z" />
    <glyph glyph-name="Ydieresis" unicode="&#x178;" horiz-adv-x="1390" 
d="M23 1376l301 35l366 -692l359 674h317l-532 -959v-434h-302v438zM279 1714l188 180l184 -180l-184 -178zM723 1714l188 180l185 -180l-185 -178z" />
    <glyph glyph-name="circumflex" unicode="&#x2c6;" horiz-adv-x="864" 
d="M102 1247l330 258l330 -258l-80 -121l-250 162l-250 -162z" />
    <glyph glyph-name="tilde" unicode="&#x2dc;" horiz-adv-x="841" 
d="M102 1147q0 62 10 108t26 73.5t40 44t48 22.5t53 6q43 0 129.5 -37t117.5 -37q28 0 47 19t19 55h147q0 -77 -14 -129t-40 -78t-55 -36.5t-67 -10.5q-51 0 -135 37t-113 37q-28 0 -45.5 -18.5t-17.5 -55.5h-150z" />
    <glyph glyph-name="uni2000" unicode="&#x2000;" horiz-adv-x="949" 
 />
    <glyph glyph-name="uni2001" unicode="&#x2001;" horiz-adv-x="1898" 
 />
    <glyph glyph-name="uni2002" unicode="&#x2002;" horiz-adv-x="949" 
 />
    <glyph glyph-name="uni2003" unicode="&#x2003;" horiz-adv-x="1898" 
 />
    <glyph glyph-name="uni2004" unicode="&#x2004;" horiz-adv-x="632" 
 />
    <glyph glyph-name="uni2005" unicode="&#x2005;" horiz-adv-x="474" 
 />
    <glyph glyph-name="uni2006" unicode="&#x2006;" horiz-adv-x="316" 
 />
    <glyph glyph-name="uni2007" unicode="&#x2007;" horiz-adv-x="316" 
 />
    <glyph glyph-name="uni2008" unicode="&#x2008;" horiz-adv-x="237" 
 />
    <glyph glyph-name="uni2009" unicode="&#x2009;" horiz-adv-x="379" 
 />
    <glyph glyph-name="uni200A" unicode="&#x200a;" horiz-adv-x="105" 
 />
    <glyph glyph-name="uni2010" unicode="&#x2010;" horiz-adv-x="950" 
d="M117 492v217h717v-217h-717z" />
    <glyph glyph-name="uni2011" unicode="&#x2011;" horiz-adv-x="950" 
d="M117 492v217h717v-217h-717z" />
    <glyph glyph-name="figuredash" unicode="&#x2012;" horiz-adv-x="950" 
d="M117 492v217h717v-217h-717z" />
    <glyph glyph-name="endash" unicode="&#x2013;" horiz-adv-x="1359" 
d="M117 492v217h1126v-217h-1126z" />
    <glyph glyph-name="emdash" unicode="&#x2014;" horiz-adv-x="1974" 
d="M117 492v217h1741v-217h-1741z" />
    <glyph glyph-name="quoteleft" unicode="&#x2018;" horiz-adv-x="514" 
d="M92 887q11 154 53 274t115 236l158 -11q-36 -95 -62.5 -235t-29.5 -264h-234z" />
    <glyph glyph-name="quoteright" unicode="&#x2019;" horiz-adv-x="512" 
d="M92 897q37 97 64 236.5t28 263.5h236q-11 -156 -52.5 -275.5t-115.5 -234.5z" />
    <glyph glyph-name="quotesinglbase" unicode="&#x201a;" horiz-adv-x="444" 
d="M16 -256q37 97 64.5 237.5t28.5 262.5h235q-11 -155 -53.5 -274.5t-116.5 -235.5z" />
    <glyph glyph-name="quotedblleft" unicode="&#x201c;" horiz-adv-x="856" 
d="M92 887q11 154 53 274t115 236l158 -11q-36 -95 -62.5 -235t-29.5 -264h-234zM436 887q11 154 53 274t115 236l158 -11q-36 -95 -62.5 -235t-29.5 -264h-234z" />
    <glyph glyph-name="quotedblright" unicode="&#x201d;" horiz-adv-x="856" 
d="M92 897q37 97 64 236.5t28 263.5h236q-11 -156 -52.5 -275.5t-115.5 -234.5zM436 897q37 97 64 236.5t28 263.5h236q-11 -156 -52.5 -275.5t-115.5 -234.5z" />
    <glyph glyph-name="quotedblbase" unicode="&#x201e;" horiz-adv-x="788" 
d="M16 -256q37 97 64.5 237.5t28.5 262.5h235q-11 -155 -53.5 -274.5t-116.5 -235.5zM360 -256q37 97 64.5 237.5t28.5 262.5h235q-11 -155 -53.5 -274.5t-116.5 -235.5z" />
    <glyph glyph-name="bullet" unicode="&#x2022;" horiz-adv-x="677" 
d="M115 276v449h448v-449h-448z" />
    <glyph glyph-name="ellipsis" unicode="&#x2026;" horiz-adv-x="1200" 
d="M102 0v244h244v-244h-244zM477 0v244h246v-244h-246zM854 0v244h244v-244h-244z" />
    <glyph glyph-name="uni202F" unicode="&#x202f;" horiz-adv-x="379" 
 />
    <glyph glyph-name="guilsinglleft" unicode="&#x2039;" horiz-adv-x="694" 
d="M68 512l356 414h188l-338 -414l338 -414h-188z" />
    <glyph glyph-name="guilsinglright" unicode="&#x203a;" horiz-adv-x="694" 
d="M80 98l338 414l-338 414h188l357 -414l-357 -414h-188z" />
    <glyph glyph-name="uni205F" unicode="&#x205f;" horiz-adv-x="474" 
 />
    <glyph glyph-name="Euro" unicode="&#x20ac;" horiz-adv-x="1507" 
d="M76 475v135h149q-4 29 -4 86t4 86h-149v136h172q63 231 253.5 363t467.5 132q145 0 254.5 -27.5t210.5 -80.5l-50 -263q-104 67 -200 97t-205 30q-147 0 -254 -64.5t-158 -186.5h410v-136h-442q-7 -47 -7 -86q0 -32 4 -86h445v-135h-410q51 -122 155 -187t243 -65
q116 0 236 32.5t218 98.5v-266q-103 -53 -211.5 -80.5t-253.5 -27.5q-269 0 -456 132t-250 363h-172z" />
    <glyph glyph-name="trademark" unicode="&#x2122;" horiz-adv-x="2213" 
d="M102 1231v162h822l-23 -162h-289v-813h-198v813h-312zM1055 418v975h196l332 -504l332 504h194v-963l-198 -24v645l-285 -420h-113l-278 420v-633h-180z" />
    <glyph glyph-name="uni25FC" unicode="&#x25fc;" horiz-adv-x="1024" 
d="M0 0v1024h1024v-1024h-1024z" />
    </font>
</defs>
</svg>
